<svg xmlns="http://www.w3.org/2000/svg" xmlns:xlink="http://www.w3.org/1999/xlink" width="500" zoomAndPan="magnify" viewBox="0 0 375 374.999991" height="500" preserveAspectRatio="xMidYMid meet" version="1.0"><defs><g/></defs><path stroke-linecap="butt" transform="matrix(1.678595, 0, 0, 1.678595, -46.69764, 0.336659)" fill="none" stroke-linejoin="miter" d="M 71.703837 114.608998 C 71.703837 112.998648 71.88535 110.736712 72.248377 107.825516 C 72.639329 104.888722 73.172234 101.898405 73.847091 98.856892 C 74.549874 95.815379 75.380647 93.241612 76.341737 91.135591 C 77.305154 89.006299 78.370964 87.940489 79.539166 87.940489 C 80.267546 87.940489 80.735292 87.991685 80.944731 88.096405 C 81.177441 88.198797 81.55443 88.303516 82.075699 88.408235 C 82.93207 90.200098 83.011191 92.487633 82.308409 95.270838 C 81.633551 98.026119 81.021525 101.053669 80.476985 104.355817 C 79.748604 109.058876 79.136578 113.219722 78.643234 116.831373 C 78.175488 120.445352 78.473356 124.538712 79.539166 129.113781 C 81.126244 128.699558 82.764519 127.373114 84.45399 125.136775 C 86.169059 122.902764 87.844568 120.263838 89.482842 117.222325 C 91.146715 114.180812 92.589514 111.309177 93.811239 108.605093 C 95.032964 105.87541 95.968456 103.822912 96.617716 102.445272 C 97.164583 101.379463 97.697488 100.157738 98.21643 98.780098 C 98.763297 97.402457 99.400921 96.152807 100.126975 95.035802 C 100.880954 93.918796 101.739652 93.360293 102.700742 93.360293 C 103.766551 93.360293 104.299456 93.918796 104.299456 95.035802 C 104.299456 96.152807 104.001588 97.518812 103.403525 99.129162 C 102.831059 100.716241 102.193435 102.314955 101.49298 103.925305 C 100.790197 105.512383 100.231694 106.720146 99.815144 107.553246 C 99.165885 108.826167 98.151271 110.957786 96.773631 113.945776 C 95.395991 116.936093 93.771679 120.082325 91.900694 123.382146 C 90.055308 126.684293 88.040044 129.479135 85.857229 131.766669 C 83.674413 134.054203 81.514869 135.196807 79.38325 135.196807 C 77.87762 135.196807 76.434821 134.507987 75.057181 133.130347 C 73.67954 131.727108 72.769646 129.932918 72.327498 127.750103 C 71.910948 125.567288 71.703837 123.279754 71.703837 120.8875 C 71.703837 118.495246 71.703837 116.403188 71.703837 114.608998 Z M 113.214557 103.106167 C 115.241457 102.040358 117.475468 100.571961 119.918918 98.700976 C 122.390293 96.829992 123.728372 94.619252 123.935484 92.07341 C 122.557843 92.280521 121.089446 93.020538 119.530293 94.295786 C 117.996737 95.568707 116.670293 97.011505 115.553288 98.624182 C 114.436282 100.208934 113.654378 101.702929 113.214557 103.106167 Z M 106.040123 106.927257 C 106.040123 104.276696 106.910457 101.405061 108.651124 98.310024 C 110.419716 95.217315 112.602531 92.578389 115.201896 90.395574 C 117.826859 88.212759 120.414589 87.121352 122.960431 87.121352 C 126.46969 87.121352 128.303441 88.459431 128.459356 91.135591 C 128.64087 93.788479 127.509902 96.660114 125.066452 99.752823 C 123.767933 101.130464 121.843425 102.729178 119.295256 104.548966 C 116.749414 106.343156 114.252441 107.343807 111.808992 107.553246 C 111.808992 109.268315 111.862515 110.787908 111.964907 112.114352 C 112.069626 113.440796 112.809643 114.790511 114.187283 116.170478 C 115.564923 117.573717 117.319553 118.274172 119.451172 118.274172 C 122.234377 118.274172 125.106012 117.403839 128.068404 115.663172 C 131.058721 113.894579 133.346256 112.426183 134.931007 111.255654 C 135.582594 110.711114 136.087574 110.280601 136.452928 109.96877 C 136.841552 109.631341 137.297663 109.254352 137.816605 108.837802 C 140.052943 107.148331 141.456182 105.901008 142.028647 105.095833 C 142.626711 104.290659 143.134017 103.757754 143.54824 103.497119 C 143.990388 103.236484 145.005002 103.106167 146.589753 103.106167 C 146.82479 104.276696 146.915547 105.070235 146.86435 105.486785 C 146.810827 105.901008 146.40824 106.538632 145.654261 107.39733 C 143.732081 109.319511 141.300266 111.502326 138.363473 113.945776 C 135.452277 116.389225 132.320007 118.520844 128.966663 120.340633 C 125.613319 122.160421 122.285573 123.070315 118.983426 123.070315 C 117.268357 123.070315 115.644044 122.784082 114.110489 122.213944 C 112.576933 121.615881 111.108536 120.61523 109.705298 119.209664 C 107.806388 117.313082 106.714981 115.351341 106.428748 113.322114 C 106.168113 111.295214 106.040123 109.163595 106.040123 106.927257 Z M 147.869655 151.651696 C 151.067084 151.651696 153.964317 150.509092 156.563682 148.221558 C 159.188645 145.934023 161.450582 143.241574 163.349491 140.148865 C 165.271672 137.056156 166.884349 134.340436 168.182868 131.999378 C 167.533608 132.208817 166.246725 132.792918 164.324544 133.754008 C 162.425635 134.717425 160.51509 135.729712 158.590582 136.795521 C 156.668402 137.861331 155.330322 138.65487 154.576343 139.173812 C 153.198703 140.03251 151.702381 141.149516 150.092031 142.527156 C 148.504952 143.930394 147.155237 145.321997 146.035905 146.699637 C 144.918899 148.077278 144.43719 149.247806 144.593106 150.208897 C 144.774619 151.169987 145.868354 151.651696 147.869655 151.651696 Z M 142.761682 121.939347 C 142.761682 117.885547 142.917597 112.907891 143.229428 107.006378 C 143.566857 101.104865 144.048566 94.879886 144.672227 88.329114 C 145.321486 81.778342 146.180185 75.578961 147.245994 69.730971 C 148.311804 63.855056 149.584724 59.058913 151.067084 55.342543 C 151.923455 53.210924 152.716994 51.754162 153.445375 50.974585 C 154.199354 50.169411 154.899809 49.766823 155.551396 49.766823 C 156.305375 49.766823 156.889476 50.143813 157.306026 50.897791 C 157.720249 51.626172 157.876164 52.249833 157.773772 52.768776 C 157.773772 53.003812 157.643454 53.573951 157.38282 54.483845 C 157.122185 55.368141 156.940672 56.187278 156.835952 56.941257 C 155.979581 60.243405 155.069687 64.583437 154.108597 69.96368 C 153.14518 75.343924 152.263211 81.063924 151.455709 87.121352 C 150.676132 93.176453 150.038508 98.92205 149.545164 104.355817 C 149.077418 109.787257 148.844708 114.101691 148.844708 117.299119 L 152.353968 111.567484 C 152.898508 110.501675 153.457011 109.514987 154.029476 108.605093 C 154.627539 107.695198 155.290761 106.864426 156.019142 106.110447 C 157.734211 103.769389 159.656392 101.937965 161.788011 100.611521 C 163.91963 99.285077 166.000052 98.624182 168.026952 98.624182 C 171.433819 98.624182 174.135577 100.430008 176.136878 104.043986 C 177.956666 107.553246 178.69901 110.697151 178.361581 113.478029 C 178.047423 116.23331 177.891508 118.846638 177.891508 121.315685 C 179.920735 120.249876 181.545047 119.393505 182.766772 118.741918 C 183.988497 118.092659 185.184623 117.403839 186.352825 116.675458 C 187.548952 115.921479 189.09647 114.85567 190.993053 113.478029 C 191.95647 112.724051 193.254989 111.658241 194.893264 110.280601 C 196.557137 108.902961 198.130253 107.604442 199.610285 106.382717 C 201.118243 105.135394 202.028137 104.511733 202.339968 104.511733 C 203.952644 104.511733 204.836941 104.860797 204.992856 105.563579 C 205.148771 106.266362 204.874174 107.071537 204.173719 107.981431 C 203.496534 108.865727 202.782116 109.65694 202.028137 110.359722 C 201.274158 111.062505 200.794777 111.465092 200.585338 111.567484 C 199.417136 112.842733 198.195412 113.959738 196.920163 114.920828 C 195.647243 115.884246 194.371994 116.950055 193.099074 118.118257 C 191.384005 119.288786 189.212825 120.640828 186.587862 122.174383 C 183.988497 123.707939 181.649766 125.099542 179.569343 126.346865 C 177.516846 127.56859 176.320719 128.387727 175.980963 128.80195 C 175.669132 129.348817 175.164153 130.544944 174.46137 132.39033 C 173.786512 134.261315 172.797497 136.44413 171.498978 138.941103 C 170.22373 141.435749 168.57382 143.930394 166.54692 146.427367 C 164.545618 148.947611 162.048645 151.118791 159.060655 152.938579 C 155.341957 155.277309 151.560428 156.447838 147.71374 156.447838 C 145.477402 156.447838 143.552894 155.889335 141.942545 154.770003 C 140.355466 153.652997 139.564254 151.858807 139.564254 149.389759 C 139.564254 147.051029 140.630063 144.737896 142.761682 142.450362 C 144.893301 140.162828 147.504302 137.977685 150.599338 135.89959 C 153.692047 133.819167 156.773121 131.987743 159.840232 130.400664 C 162.932941 128.815912 165.44155 127.542992 167.36373 126.579574 C 168.84609 125.825595 169.769946 125.346214 170.132973 125.136775 C 170.523925 124.929664 170.938148 123.91505 171.380296 122.095262 C 172.108677 119.002553 172.420508 116.077395 172.315788 113.322114 C 172.213396 110.541236 171.757285 108.279299 170.952111 106.538632 C 170.172534 104.77004 168.976407 103.888071 167.36373 103.888071 C 165.33683 103.888071 162.790989 105.642701 159.72155 109.15196 C 157.045391 112.347061 154.899809 115.819087 153.28946 119.561056 C 151.702381 123.279754 150.403862 126.477182 149.389249 129.153341 C 148.376962 131.803902 147.336751 133.130347 146.270941 133.130347 C 144.893301 133.130347 143.957809 132.520648 143.462138 131.298923 C 142.994392 130.049273 142.761682 128.555278 142.761682 126.814611 C 142.761682 125.046019 142.761682 123.421706 142.761682 121.939347 Z M 197.231994 115.856321 C 197.231994 113.622309 197.764899 110.853066 198.830708 107.553246 C 199.896518 104.251098 201.378877 100.974548 203.277787 97.725924 C 205.199967 94.477299 207.410708 91.798813 209.905353 89.695119 C 212.427924 87.5635 215.064523 86.49769 217.819803 86.49769 C 220.393571 86.49769 222.473993 87.237706 224.058745 88.720066 C 225.671422 90.200098 226.632512 91.722019 226.944343 93.281172 C 227.256174 94.814728 226.723269 95.582669 225.345629 95.582669 C 224.279819 95.582669 223.188412 94.970643 222.071406 93.748918 C 220.952073 92.527193 219.653554 91.917494 218.171195 91.917494 C 217.002993 91.917494 215.585792 92.606315 213.921919 93.983955 C 212.283645 95.361595 210.282343 98.077315 207.918014 102.133441 C 206.852205 103.84851 205.863189 106.056924 204.953295 108.761008 C 204.068999 111.465092 203.626851 114.155214 203.626851 116.831373 C 203.83629 116.624262 203.913084 116.545141 203.861888 116.598664 C 203.810692 116.64986 203.992205 116.454384 204.408755 116.014563 L 205.693312 114.101691 C 206.55201 112.82877 207.541025 111.17886 208.658031 109.15196 C 209.775036 107.122733 210.919967 105.081871 212.088169 103.029373 C 213.258697 100.94895 214.324507 99.19432 215.285597 97.765484 C 216.249014 96.308723 216.989031 95.582669 217.507973 95.582669 C 219.43248 95.582669 220.549486 96.283125 220.861317 97.686363 C 221.173147 99.064003 221.303465 100.767437 221.252269 102.794336 C 221.201072 104.795638 221.394221 106.810902 221.836369 108.837802 C 222.460031 111.7234 223.435084 113.829421 224.761528 115.155865 C 226.11357 116.482309 227.633163 117.143204 229.322634 117.143204 C 232.312951 117.143204 235.615099 115.337378 239.22675 111.7234 C 240.734708 110.34576 241.800517 109.203156 242.424179 108.293262 C 243.073438 107.383368 243.932136 106.343156 244.997946 105.172627 C 245.726326 104.106818 246.673454 103.573913 247.843983 103.573913 C 249.014512 103.573913 249.521818 104.562929 249.365903 106.538632 C 249.209988 108.488738 247.115602 111.439494 243.087401 115.388574 L 238.291258 119.209664 C 235.198549 121.341283 232.208232 122.407093 229.322634 122.407093 C 226.672073 122.407093 224.35894 121.615881 222.383237 120.028802 C 220.407533 118.418452 218.885613 116.442748 217.819803 114.101691 C 216.753994 111.76296 216.221089 109.475426 216.221089 107.241415 C 215.495036 107.785955 214.6503 108.968119 213.686883 110.787908 C 212.725793 112.582098 211.685581 114.518241 210.568576 116.598664 C 209.45157 118.67676 208.306639 120.484912 207.13611 122.018468 C 205.967909 123.552024 204.79738 124.317638 203.626851 124.317638 C 200.638861 124.317638 198.819073 123.628818 198.169813 122.251178 C 197.546152 120.873537 197.231994 118.741918 197.231994 115.856321 Z M 197.231994 115.856321 " stroke="#fffef9" stroke-width="11.978925" stroke-opacity="1" stroke-miterlimit="4"/><g fill="#ff3131" fill-opacity="1"><g transform="translate(73.400587, 221.9112)"><g><path d="M 0.265625 -29.21875 C 0.265625 -31.90625 0.578125 -35.703125 1.203125 -40.609375 C 1.828125 -45.523438 2.71875 -50.53125 3.875 -55.625 C 5.039062 -60.71875 6.425781 -65.050781 8.03125 -68.625 C 9.644531 -72.207031 11.4375 -74 13.40625 -74 C 14.65625 -74 15.457031 -73.90625 15.8125 -73.71875 C 16.175781 -73.539062 16.800781 -73.363281 17.6875 -73.1875 C 19.125 -70.144531 19.257812 -66.300781 18.09375 -61.65625 C 16.9375 -57.007812 15.910156 -51.914062 15.015625 -46.375 C 13.765625 -38.507812 12.734375 -31.539062 11.921875 -25.46875 C 11.117188 -19.394531 11.613281 -12.515625 13.40625 -4.828125 C 16.082031 -5.535156 18.847656 -7.765625 21.703125 -11.515625 C 24.566406 -15.273438 27.382812 -19.703125 30.15625 -24.796875 C 32.925781 -29.890625 35.335938 -34.710938 37.390625 -39.265625 C 39.453125 -43.828125 41.019531 -47.269531 42.09375 -49.59375 C 42.988281 -51.382812 43.878906 -53.441406 44.765625 -55.765625 C 45.660156 -58.085938 46.734375 -60.1875 47.984375 -62.0625 C 49.234375 -63.9375 50.664062 -64.875 52.28125 -64.875 C 54.0625 -64.875 54.953125 -63.9375 54.953125 -62.0625 C 54.953125 -60.1875 54.460938 -57.90625 53.484375 -55.21875 C 52.503906 -52.539062 51.429688 -49.859375 50.265625 -47.171875 C 49.109375 -44.492188 48.171875 -42.441406 47.453125 -41.015625 C 46.378906 -38.867188 44.679688 -35.289062 42.359375 -30.28125 C 40.035156 -25.28125 37.304688 -20.007812 34.171875 -14.46875 C 31.046875 -8.9375 27.648438 -4.25 23.984375 -0.40625 C 20.328125 3.4375 16.710938 5.359375 13.140625 5.359375 C 10.640625 5.359375 8.222656 4.195312 5.890625 1.875 C 3.566406 -0.445312 2.046875 -3.4375 1.328125 -7.09375 C 0.617188 -10.757812 0.265625 -14.601562 0.265625 -18.625 C 0.265625 -22.65625 0.265625 -26.1875 0.265625 -29.21875 Z M 0.265625 -29.21875 "/></g></g></g><g fill="#ff3131" fill-opacity="1"><g transform="translate(131.037079, 221.9112)"><g><path d="M 12.328125 -48.53125 C 15.722656 -50.3125 19.476562 -52.765625 23.59375 -55.890625 C 27.707031 -59.023438 29.941406 -62.738281 30.296875 -67.03125 C 27.972656 -66.664062 25.515625 -65.410156 22.921875 -63.265625 C 20.328125 -61.117188 18.09375 -58.707031 16.21875 -56.03125 C 14.34375 -53.351562 13.046875 -50.851562 12.328125 -48.53125 Z M 0.265625 -42.09375 C 0.265625 -46.5625 1.738281 -51.382812 4.6875 -56.5625 C 7.632812 -61.75 11.296875 -66.171875 15.671875 -69.828125 C 20.054688 -73.492188 24.394531 -75.328125 28.6875 -75.328125 C 34.582031 -75.328125 37.664062 -73.09375 37.9375 -68.625 C 38.207031 -64.15625 36.285156 -59.332031 32.171875 -54.15625 C 30.023438 -51.832031 26.804688 -49.148438 22.515625 -46.109375 C 18.222656 -43.066406 14.023438 -41.367188 9.921875 -41.015625 C 9.921875 -38.160156 10.007812 -35.613281 10.1875 -33.375 C 10.363281 -31.144531 11.613281 -28.867188 13.9375 -26.546875 C 16.257812 -24.222656 19.207031 -23.0625 22.78125 -23.0625 C 27.4375 -23.0625 32.265625 -24.535156 37.265625 -27.484375 C 42.265625 -30.429688 46.109375 -32.890625 48.796875 -34.859375 C 49.867188 -35.742188 50.71875 -36.453125 51.34375 -36.984375 C 51.96875 -37.523438 52.726562 -38.15625 53.625 -38.875 C 57.375 -41.726562 59.738281 -43.828125 60.71875 -45.171875 C 61.707031 -46.515625 62.554688 -47.410156 63.265625 -47.859375 C 63.984375 -48.304688 65.679688 -48.53125 68.359375 -48.53125 C 68.722656 -46.5625 68.859375 -45.21875 68.765625 -44.5 C 68.671875 -43.789062 68 -42.71875 66.75 -41.28125 C 63.53125 -38.0625 59.460938 -34.394531 54.546875 -30.28125 C 49.640625 -26.175781 44.367188 -22.601562 38.734375 -19.5625 C 33.109375 -16.53125 27.523438 -15.015625 21.984375 -15.015625 C 19.117188 -15.015625 16.390625 -15.503906 13.796875 -16.484375 C 11.210938 -17.472656 8.757812 -19.128906 6.4375 -21.453125 C 3.21875 -24.660156 1.382812 -27.960938 0.9375 -31.359375 C 0.488281 -34.753906 0.265625 -38.332031 0.265625 -42.09375 Z M 0.265625 -42.09375 "/></g></g></g><g fill="#ff3131" fill-opacity="1"><g transform="translate(189.209708, 221.9112)"><g><path d="M 12.328125 32.96875 C 17.691406 32.96875 22.5625 31.046875 26.9375 27.203125 C 31.320312 23.367188 35.117188 18.859375 38.328125 13.671875 C 41.546875 8.484375 44.226562 3.925781 46.375 0 C 45.300781 0.351562 43.15625 1.332031 39.9375 2.9375 C 36.726562 4.550781 33.515625 6.25 30.296875 8.03125 C 27.078125 9.820312 24.84375 11.164062 23.59375 12.0625 C 21.269531 13.488281 18.765625 15.363281 16.078125 17.6875 C 13.398438 20.007812 11.125 22.332031 9.25 24.65625 C 7.375 26.988281 6.566406 28.957031 6.828125 30.5625 C 7.097656 32.164062 8.929688 32.96875 12.328125 32.96875 Z M 3.75 -16.890625 C 3.75 -23.679688 4.015625 -32.035156 4.546875 -41.953125 C 5.085938 -51.867188 5.894531 -62.320312 6.96875 -73.3125 C 8.039062 -84.3125 9.46875 -94.722656 11.25 -104.546875 C 13.039062 -114.378906 15.1875 -122.425781 17.6875 -128.6875 C 19.125 -132.257812 20.46875 -134.710938 21.71875 -136.046875 C 22.96875 -137.390625 24.128906 -138.0625 25.203125 -138.0625 C 26.453125 -138.0625 27.429688 -137.4375 28.140625 -136.1875 C 28.859375 -134.9375 29.128906 -133.863281 28.953125 -132.96875 C 28.953125 -132.613281 28.726562 -131.675781 28.28125 -130.15625 C 27.832031 -128.632812 27.519531 -127.25 27.34375 -126 C 25.914062 -120.457031 24.394531 -113.171875 22.78125 -104.140625 C 21.175781 -95.117188 19.703125 -85.515625 18.359375 -75.328125 C 17.023438 -65.140625 15.953125 -55.488281 15.140625 -46.375 C 14.335938 -37.257812 13.9375 -30.023438 13.9375 -24.671875 L 19.84375 -34.3125 C 20.726562 -36.101562 21.660156 -37.753906 22.640625 -39.265625 C 23.628906 -40.785156 24.75 -42.175781 26 -43.4375 C 28.863281 -47.363281 32.082031 -50.441406 35.65625 -52.671875 C 39.226562 -54.910156 42.710938 -56.03125 46.109375 -56.03125 C 51.828125 -56.03125 56.382812 -52.992188 59.78125 -46.921875 C 62.820312 -41.015625 64.070312 -35.738281 63.53125 -31.09375 C 63 -26.445312 62.734375 -22.070312 62.734375 -17.96875 C 66.128906 -19.75 68.851562 -21.175781 70.90625 -22.25 C 72.96875 -23.320312 74.976562 -24.484375 76.9375 -25.734375 C 78.90625 -26.984375 81.5 -28.769531 84.71875 -31.09375 C 86.320312 -32.34375 88.507812 -34.128906 91.28125 -36.453125 C 94.050781 -38.785156 96.6875 -40.976562 99.1875 -43.03125 C 101.695312 -45.082031 103.21875 -46.109375 103.75 -46.109375 C 106.4375 -46.109375 107.910156 -45.523438 108.171875 -44.359375 C 108.441406 -43.203125 107.992188 -41.863281 106.828125 -40.34375 C 105.671875 -38.820312 104.46875 -37.476562 103.21875 -36.3125 C 101.96875 -35.15625 101.160156 -34.488281 100.796875 -34.3125 C 98.835938 -32.164062 96.785156 -30.285156 94.640625 -28.671875 C 92.492188 -27.066406 90.347656 -25.285156 88.203125 -23.328125 C 85.335938 -21.359375 81.71875 -19.078125 77.34375 -16.484375 C 72.96875 -13.890625 69.035156 -11.566406 65.546875 -9.515625 C 62.066406 -7.460938 60.054688 -6.078125 59.515625 -5.359375 C 58.984375 -4.460938 58.132812 -2.453125 56.96875 0.671875 C 55.8125 3.796875 54.160156 7.457031 52.015625 11.65625 C 49.867188 15.863281 47.097656 20.066406 43.703125 24.265625 C 40.304688 28.460938 36.101562 32.082031 31.09375 35.125 C 24.84375 39.050781 18.5 41.015625 12.0625 41.015625 C 8.3125 41.015625 5.09375 40.078125 2.40625 38.203125 C -0.269531 36.328125 -1.609375 33.332031 -1.609375 29.21875 C -1.609375 25.289062 0.175781 21.40625 3.75 17.5625 C 7.320312 13.71875 11.703125 10.050781 16.890625 6.5625 C 22.078125 3.082031 27.257812 0.00390625 32.4375 -2.671875 C 37.625 -5.359375 41.828125 -7.503906 45.046875 -9.109375 C 47.546875 -10.359375 49.109375 -11.160156 49.734375 -11.515625 C 50.359375 -11.878906 51.023438 -13.582031 51.734375 -16.625 C 52.992188 -21.800781 53.53125 -26.710938 53.34375 -31.359375 C 53.164062 -36.015625 52.40625 -39.816406 51.0625 -42.765625 C 49.726562 -45.710938 47.722656 -47.1875 45.046875 -47.1875 C 41.648438 -47.1875 37.359375 -44.238281 32.171875 -38.34375 C 27.703125 -32.976562 24.125 -27.164062 21.4375 -20.90625 C 18.757812 -14.65625 16.570312 -9.296875 14.875 -4.828125 C 13.175781 -0.359375 11.4375 1.875 9.65625 1.875 C 7.332031 1.875 5.765625 0.847656 4.953125 -1.203125 C 4.148438 -3.265625 3.75 -5.769531 3.75 -8.71875 C 3.75 -11.664062 3.75 -14.390625 3.75 -16.890625 Z M 3.75 -16.890625 "/></g></g></g><g fill="#ff3131" fill-opacity="1"><g transform="translate(284.376922, 221.9112)"><g><path d="M 0 -27.078125 C 0 -30.828125 0.890625 -35.472656 2.671875 -41.015625 C 4.460938 -46.554688 6.96875 -52.050781 10.1875 -57.5 C 13.40625 -62.957031 17.113281 -67.472656 21.3125 -71.046875 C 25.507812 -74.617188 29.929688 -76.40625 34.578125 -76.40625 C 38.867188 -76.40625 42.351562 -75.15625 45.03125 -72.65625 C 47.71875 -70.15625 49.328125 -67.609375 49.859375 -65.015625 C 50.398438 -62.421875 49.507812 -61.125 47.1875 -61.125 C 45.394531 -61.125 43.5625 -62.148438 41.6875 -64.203125 C 39.8125 -66.265625 37.625 -67.296875 35.125 -67.296875 C 33.15625 -67.296875 30.785156 -66.132812 28.015625 -63.8125 C 25.242188 -61.488281 21.894531 -56.929688 17.96875 -50.140625 C 16.175781 -47.273438 14.519531 -43.5625 13 -39 C 11.476562 -34.445312 10.71875 -29.9375 10.71875 -25.46875 C 11.082031 -25.820312 11.21875 -25.953125 11.125 -25.859375 C 11.03125 -25.773438 11.34375 -26.09375 12.0625 -26.8125 L 14.203125 -30.03125 C 15.640625 -32.175781 17.296875 -34.945312 19.171875 -38.34375 C 21.046875 -41.738281 22.960938 -45.175781 24.921875 -48.65625 C 26.890625 -52.144531 28.675781 -55.09375 30.28125 -57.5 C 31.894531 -59.914062 33.148438 -61.125 34.046875 -61.125 C 37.265625 -61.125 39.140625 -59.960938 39.671875 -57.640625 C 40.210938 -55.316406 40.4375 -52.457031 40.34375 -49.0625 C 40.257812 -45.664062 40.570312 -42.269531 41.28125 -38.875 C 42.351562 -34.050781 44.003906 -30.519531 46.234375 -28.28125 C 48.472656 -26.050781 51.023438 -24.9375 53.890625 -24.9375 C 58.890625 -24.9375 64.429688 -27.972656 70.515625 -34.046875 C 73.015625 -36.367188 74.800781 -38.289062 75.875 -39.8125 C 76.945312 -41.332031 78.375 -43.078125 80.15625 -45.046875 C 81.40625 -46.828125 83.015625 -47.71875 84.984375 -47.71875 C 86.953125 -47.71875 87.800781 -46.0625 87.53125 -42.75 C 87.257812 -39.445312 83.726562 -34.488281 76.9375 -27.875 L 68.90625 -21.453125 C 63.71875 -17.867188 58.710938 -16.078125 53.890625 -16.078125 C 49.421875 -16.078125 45.53125 -17.414062 42.21875 -20.09375 C 38.914062 -22.78125 36.367188 -26.085938 34.578125 -30.015625 C 32.796875 -33.953125 31.90625 -37.796875 31.90625 -41.546875 C 30.65625 -40.660156 29.222656 -38.695312 27.609375 -35.65625 C 26.003906 -32.613281 24.265625 -29.347656 22.390625 -25.859375 C 20.515625 -22.378906 18.59375 -19.34375 16.625 -16.75 C 14.65625 -14.164062 12.6875 -12.875 10.71875 -12.875 C 5.71875 -12.875 2.679688 -14.035156 1.609375 -16.359375 C 0.535156 -18.679688 0 -22.253906 0 -27.078125 Z M 0 -27.078125 "/></g></g></g><path stroke-linecap="butt" transform="matrix(0.971231, 0, 0, 0.971231, -115.534814, 64.911442)" fill="none" stroke-linejoin="miter" d="M 127.451488 -6.303733 C 127.97032 -6.746148 128.388604 -7.148344 128.698295 -7.51032 C 129.036139 -7.876319 129.53084 -8.057307 130.182397 -8.057307 C 132.080762 -8.057307 133.379854 -6.991488 134.079675 -4.85985 C 134.783518 -2.728212 135.185714 -0.194378 135.290284 2.741652 C 135.394855 5.65355 135.599975 8.227603 135.913688 10.463812 C 136.12283 11.839322 136.275664 13.866389 136.380235 16.545013 C 136.484806 19.195483 136.561223 22.095315 136.613509 25.240487 C 136.693948 28.385658 136.730146 31.349842 136.730146 34.129015 C 136.730146 36.888078 136.730146 39.160485 136.730146 40.954278 C 136.730146 50.85634 136.460674 61.321476 135.913688 72.341642 C 135.394855 83.36583 134.91222 94.554918 134.469805 105.912928 C 134.055543 117.246807 133.922819 128.335346 134.079675 139.174524 C 134.236531 150.041856 135.004725 160.217411 136.380235 169.705211 C 136.613509 170.980171 136.967441 173.148007 137.433988 176.216761 C 137.900535 179.309647 138.564159 182.611675 139.420836 186.118823 C 140.281535 189.654124 141.3192 192.751032 142.541875 195.401503 C 143.764551 198.076105 145.115929 199.676845 146.59601 200.195677 C 147.895102 199.339 149.129843 197.661843 150.300233 195.168229 C 151.470623 192.670593 152.588728 189.823046 153.654546 186.62559 C 154.720365 183.428133 155.669548 180.335247 156.502093 177.346931 C 157.35877 174.382748 158.110876 171.941419 158.762434 170.014901 L 181.768036 95.11397 C 182.938426 91.502251 184.05653 87.914665 185.122349 84.351209 C 186.188168 80.763623 187.253987 77.216255 188.319806 73.709108 C 188.629497 72.643289 189.200615 70.563936 190.03316 67.467028 C 190.889837 64.374142 191.903371 60.91928 193.073761 57.098419 C 194.244151 53.277559 195.466826 49.533116 196.741787 45.869112 C 198.040879 42.176954 199.299752 39.136353 200.522428 36.743288 C 201.745103 34.350223 202.835054 33.155701 203.796302 33.155701 C 205.280404 33.155701 206.177301 33.586051 206.486992 34.442728 C 206.824836 35.275273 206.772551 36.224455 206.334158 37.290274 C 205.059197 40.38316 204.01751 42.993411 203.213118 45.125049 C 202.432858 47.256687 201.564115 50.080102 200.598845 53.58725 C 199.327906 58.164238 197.859891 63.087115 196.1948 68.363925 C 194.557863 73.616603 192.904838 78.905478 191.24377 84.234573 C 189.602811 89.563668 188.150884 94.566984 186.875923 99.248543 L 180.014462 121.940433 C 176.374589 132.807764 172.903639 144.137621 169.601612 155.942069 C 166.299584 167.766627 162.792436 179.116593 159.076146 189.979903 C 158.320018 192.425254 157.35877 194.947021 156.18838 197.545207 C 155.01799 200.171545 153.578129 202.355469 151.860753 204.096977 C 150.171531 205.862617 148.051958 206.747447 145.506059 206.747447 C 143.165279 206.747447 141.009509 205.227147 139.030706 202.186547 C 137.055924 199.141924 135.290284 195.284866 133.729765 190.603306 C 132.197398 185.925769 130.922438 180.99887 129.908904 175.826631 C 128.919502 170.678524 128.15533 165.872284 127.608344 161.399866 C 127.089511 156.927449 126.828084 153.524872 126.828084 151.184092 L 125.697914 128.17849 C 125.697914 111.881515 126.152395 95.906296 127.061358 80.256856 C 127.97032 64.607416 128.424801 48.74079 128.424801 32.648934 C 128.424801 26.487294 128.255879 19.923458 127.918035 12.957426 C 127.608344 5.967262 127.451488 -0.455805 127.451488 -6.303733 Z M 127.451488 -6.303733 " stroke="#fffef9" stroke-width="11.978925" stroke-opacity="1" stroke-miterlimit="4"/><g fill="#ff3131" fill-opacity="1"><g transform="translate(3.440963, 193.113912)"><g><path d="M 4.8125 -134.328125 C 5.320312 -134.734375 5.734375 -135.117188 6.046875 -135.484375 C 6.359375 -135.847656 6.820312 -136.03125 7.4375 -136.03125 C 9.300781 -136.03125 10.566406 -134.992188 11.234375 -132.921875 C 11.910156 -130.859375 12.300781 -128.40625 12.40625 -125.5625 C 12.507812 -122.71875 12.71875 -120.207031 13.03125 -118.03125 C 13.238281 -116.6875 13.394531 -114.722656 13.5 -112.140625 C 13.601562 -109.554688 13.679688 -106.738281 13.734375 -103.6875 C 13.785156 -100.632812 13.8125 -97.765625 13.8125 -95.078125 C 13.8125 -92.390625 13.8125 -90.164062 13.8125 -88.40625 C 13.8125 -78.789062 13.550781 -68.628906 13.03125 -57.921875 C 12.507812 -47.222656 12.039062 -36.367188 11.625 -25.359375 C 11.21875 -14.347656 11.09375 -3.570312 11.25 6.96875 C 11.40625 17.519531 12.15625 27.398438 13.5 36.609375 C 13.707031 37.847656 14.039062 39.96875 14.5 42.96875 C 14.96875 45.96875 15.613281 49.171875 16.4375 52.578125 C 17.269531 55.992188 18.28125 58.992188 19.46875 61.578125 C 20.65625 64.160156 21.972656 65.710938 23.421875 66.234375 C 24.660156 65.398438 25.847656 63.769531 26.984375 61.34375 C 28.117188 58.914062 29.203125 56.148438 30.234375 53.046875 C 31.273438 49.941406 32.207031 46.941406 33.03125 44.046875 C 33.863281 41.148438 34.585938 38.773438 35.203125 36.921875 L 57.546875 -35.828125 C 58.679688 -39.347656 59.765625 -42.835938 60.796875 -46.296875 C 61.835938 -49.765625 62.875 -53.203125 63.90625 -56.609375 C 64.21875 -57.648438 64.785156 -59.664062 65.609375 -62.65625 C 66.441406 -65.65625 67.425781 -69.015625 68.5625 -72.734375 C 69.695312 -76.460938 70.882812 -80.109375 72.125 -83.671875 C 73.363281 -87.242188 74.578125 -90.191406 75.765625 -92.515625 C 76.960938 -94.847656 78.023438 -96.015625 78.953125 -96.015625 C 80.398438 -96.015625 81.273438 -95.597656 81.578125 -94.765625 C 81.890625 -93.941406 81.84375 -93.015625 81.4375 -91.984375 C 80.195312 -88.984375 79.1875 -86.445312 78.40625 -84.375 C 77.632812 -82.3125 76.78125 -79.570312 75.84375 -76.15625 C 74.601562 -71.707031 73.179688 -66.925781 71.578125 -61.8125 C 69.972656 -56.695312 68.367188 -51.550781 66.765625 -46.375 C 65.171875 -41.207031 63.753906 -36.347656 62.515625 -31.796875 L 55.84375 -9.765625 C 52.320312 0.773438 48.957031 11.785156 45.75 23.265625 C 42.550781 34.742188 39.140625 45.757812 35.515625 56.3125 C 34.796875 58.6875 33.863281 61.140625 32.71875 63.671875 C 31.582031 66.203125 30.1875 68.320312 28.53125 70.03125 C 26.882812 71.738281 24.816406 72.59375 22.328125 72.59375 C 20.054688 72.59375 17.960938 71.117188 16.046875 68.171875 C 14.140625 65.222656 12.4375 61.472656 10.9375 56.921875 C 9.4375 52.367188 8.191406 47.585938 7.203125 42.578125 C 6.222656 37.566406 5.472656 32.890625 4.953125 28.546875 C 4.441406 24.203125 4.1875 20.890625 4.1875 18.609375 L 3.109375 -3.71875 C 3.109375 -19.539062 3.546875 -35.050781 4.421875 -50.25 C 5.296875 -65.457031 5.734375 -80.867188 5.734375 -96.484375 C 5.734375 -102.472656 5.578125 -108.851562 5.265625 -115.625 C 4.960938 -122.40625 4.8125 -128.640625 4.8125 -134.328125 Z M 4.8125 -134.328125 "/></g></g></g></svg>