<svg xmlns="http://www.w3.org/2000/svg" xmlns:xlink="http://www.w3.org/1999/xlink" width="500" zoomAndPan="magnify" viewBox="0 0 375 374.999991" height="500" preserveAspectRatio="xMidYMid meet" version="1.0"><defs><g/></defs><path stroke-linecap="butt" transform="matrix(1.465975, 0, 0, 1.465975, 69.32406, 103.939402)" fill="none" stroke-linejoin="miter" d="M 21.205062 -3.758395 C 21.471523 -3.984887 21.684692 -4.190062 21.844568 -4.376584 C 22.017768 -4.563107 22.268241 -4.656368 22.601317 -4.656368 C 23.573899 -4.656368 24.237387 -4.110124 24.597109 -3.020299 C 24.956831 -1.930474 25.162006 -0.63281 25.215298 0.87003 C 25.26859 2.359546 25.375174 3.675862 25.535051 4.818979 C 25.641635 5.5251 25.721573 6.561633 25.774866 7.931242 C 25.825493 9.287528 25.865462 10.771714 25.892108 12.381138 C 25.932078 13.990561 25.953394 15.506724 25.953394 16.929625 C 25.953394 18.339202 25.953394 19.500972 25.953394 20.420262 C 25.953394 25.485682 25.814835 30.838881 25.535051 36.477192 C 25.26859 42.118168 25.023446 47.841747 24.796954 53.653258 C 24.583786 59.451446 24.51717 65.124397 24.597109 70.669447 C 24.677047 76.230485 25.068744 81.43713 25.774866 86.289382 C 25.892108 86.942211 26.073302 88.053353 26.313117 89.622807 C 26.552931 91.205584 26.891337 92.892282 27.328332 94.688228 C 27.767993 96.497497 28.300914 98.080274 28.924433 99.43656 C 29.550616 100.806169 30.243414 101.624203 31.000163 101.890664 C 31.666315 101.451004 32.297827 100.593 32.894699 99.316653 C 33.494236 98.040305 34.064462 96.582764 34.610707 94.949359 C 35.156952 93.31329 35.641911 91.730512 36.068248 90.201027 C 36.505244 88.684865 36.891612 87.435164 37.224688 86.449258 L 48.994263 48.129525 C 49.591136 46.280286 50.164027 44.444371 50.710271 42.621779 C 51.253851 40.788528 51.800096 38.971265 52.346341 37.175319 C 52.506217 36.631739 52.79666 35.56856 53.222997 33.985783 C 53.662657 32.403006 54.179591 30.633706 54.779128 28.677883 C 55.378665 26.724725 56.002184 24.808872 56.655013 22.932987 C 57.3185 21.04378 57.963335 19.487649 58.589518 18.264593 C 59.213037 17.041538 59.772605 16.428678 60.265557 16.428678 C 61.022306 16.428678 61.480619 16.649841 61.640495 17.089501 C 61.813695 17.513174 61.787049 17.998133 61.560557 18.544377 C 60.910392 20.127155 60.377471 21.464788 59.964456 22.554613 C 59.56743 23.644438 59.12244 25.088656 58.629488 26.881937 C 57.976658 29.224128 57.225239 31.744847 56.375229 34.444096 C 55.535877 37.130021 54.693861 39.837263 53.841186 42.563158 C 53.004499 45.289052 52.258409 47.849741 51.608244 50.242559 L 48.09629 61.852258 C 46.233729 67.413296 44.4591 73.211484 42.769738 79.249486 C 41.080376 85.300812 39.28443 91.104329 37.384565 96.662703 C 36.998196 97.915068 36.505244 99.204739 35.908371 100.534379 C 35.308835 101.877341 34.570738 102.993812 33.694082 103.886456 C 32.828084 104.789758 31.746253 105.242742 30.440595 105.242742 C 29.244186 105.242742 28.141038 104.464676 27.131151 102.908545 C 26.1186 101.352413 25.215298 99.377939 24.415915 96.982456 C 23.63252 94.589637 22.979691 92.068918 22.462757 89.422961 C 21.956482 86.790328 21.564784 84.32823 21.285 82.041996 C 21.01854 79.753097 20.885309 78.010444 20.885309 76.814034 L 20.307089 65.044459 C 20.307089 56.706899 20.541575 48.534545 21.005217 40.527397 C 21.471523 32.522913 21.703344 24.403851 21.703344 16.170211 C 21.703344 13.017979 21.618076 9.660573 21.444877 6.095327 C 21.285 2.519422 21.205062 -0.76604 21.205062 -3.758395 Z M 54.619252 58.103154 C 54.619252 57.277125 54.712513 56.120685 54.899036 54.631169 C 55.098881 53.12833 55.370671 51.598845 55.717071 50.042713 C 56.076793 48.486582 56.500465 47.170266 56.993418 46.093764 C 57.486371 45.003939 58.029951 44.457694 58.629488 44.457694 C 59.002533 44.457694 59.239683 44.48434 59.346267 44.537632 C 59.466175 44.590925 59.660691 44.644217 59.924487 44.697509 C 60.364148 45.614134 60.404117 46.786562 60.044395 48.209463 C 59.70066 49.619041 59.386236 51.167178 59.109117 52.85654 C 58.736072 55.262681 58.421648 57.391704 58.171175 59.240942 C 57.93136 61.087515 58.083243 63.181898 58.629488 65.524088 C 59.439529 65.31092 60.27888 64.631445 61.142213 63.488328 C 62.021534 62.345211 62.876873 60.994254 63.716225 59.438123 C 64.566235 57.884656 65.304332 56.413792 65.930515 55.03086 C 66.556698 53.634606 67.033663 52.58475 67.366739 51.878629 C 67.646522 51.332384 67.918313 50.708866 68.184773 50.002744 C 68.464557 49.299288 68.789639 48.659782 69.162685 48.089555 C 69.546388 47.516665 69.986049 47.231552 70.479001 47.231552 C 71.022581 47.231552 71.297036 47.516665 71.297036 48.089555 C 71.297036 48.659782 71.142489 49.357909 70.838723 50.183938 C 70.545616 50.993979 70.220534 51.812013 69.860812 52.638042 C 69.50109 53.448083 69.215977 54.066272 69.002808 54.49261 C 68.669732 55.142774 68.150133 56.235263 67.446677 57.764749 C 66.740556 59.294234 65.909198 60.903657 64.952603 62.590355 C 64.009332 64.279716 62.978129 65.710611 61.861658 66.880374 C 60.742522 68.050137 59.639374 68.636351 58.549549 68.636351 C 57.776813 68.636351 57.038716 68.284623 56.33526 67.578502 C 55.629138 66.859057 55.165497 65.942432 54.939005 64.825961 C 54.725836 63.70949 54.619252 62.537062 54.619252 61.314007 C 54.619252 60.090952 54.619252 59.019779 54.619252 58.103154 Z M 75.856181 52.217034 C 76.892714 51.673454 78.038495 50.922034 79.288197 49.962775 C 80.551221 49.006181 81.236025 47.876387 81.34261 46.573393 C 80.636489 46.679978 79.885069 47.058352 79.088351 47.708516 C 78.302292 48.361346 77.625481 49.099442 77.05259 49.922806 C 76.482364 50.735512 76.082673 51.500254 75.856181 52.217034 Z M 72.184351 54.172857 C 72.184351 52.816571 72.632005 51.345707 73.521984 49.765594 C 74.425286 48.182817 75.544422 46.83186 76.874061 45.715389 C 78.217024 44.596254 79.53867 44.039351 80.844328 44.039351 C 82.637609 44.039351 83.575552 44.724155 83.65549 46.093764 C 83.748751 47.450049 83.170531 48.920913 81.92083 50.503691 C 81.254678 51.207147 80.271437 52.025182 78.968444 52.95513 C 77.66545 53.87442 76.389103 54.386025 75.136737 54.49261 C 75.136737 55.369266 75.163383 56.147331 75.216675 56.826807 C 75.269967 57.503617 75.651006 58.196415 76.354463 58.899872 C 77.060584 59.619316 77.958557 59.979038 79.048382 59.979038 C 80.471283 59.979038 81.939482 59.531384 83.455644 58.641405 C 84.98513 57.738103 86.157557 56.986683 86.967598 56.387146 C 87.300674 56.107362 87.559141 55.888864 87.745664 55.728988 C 87.945509 55.555788 88.17733 55.363936 88.443791 55.150768 C 89.586908 54.28477 90.306353 53.647929 90.599459 53.234914 C 90.903225 52.8219 91.164356 52.55011 91.377525 52.41688 C 91.601352 52.283649 92.120951 52.217034 92.930992 52.217034 C 93.050899 52.816571 93.098862 53.221591 93.072216 53.43476 C 93.04557 53.647929 92.840395 53.973011 92.454027 54.412671 C 91.468122 55.395912 90.226414 56.512383 88.723575 57.764749 C 87.234059 59.01445 85.629965 60.104275 83.916622 61.034223 C 82.200614 61.966836 80.497929 62.430478 78.808567 62.430478 C 77.931911 62.430478 77.100553 62.286589 76.314494 61.993482 C 75.531099 61.687052 74.779679 61.175447 74.060235 60.456003 C 73.090317 59.486086 72.53075 58.481528 72.384196 57.444996 C 72.250966 56.408463 72.184351 55.315974 72.184351 54.172857 Z M 93.586486 77.053849 C 95.222555 77.053849 96.704077 76.4703 98.033717 75.297872 C 99.37668 74.128109 100.535784 72.753171 101.505702 71.170394 C 102.488942 69.587616 103.314971 68.196691 103.978458 67.000282 C 103.645382 67.106866 102.987224 67.405302 102.003984 67.898255 C 101.034066 68.388542 100.056155 68.908141 99.072914 69.454386 C 98.087009 69.997966 97.402205 70.405651 97.015837 70.669447 C 96.31238 71.109108 95.547637 71.681999 94.721609 72.385455 C 93.911568 73.104899 93.21877 73.81635 92.648543 74.519806 C 92.075653 75.225928 91.830509 75.8228 91.910447 76.315753 C 92.003708 76.808705 92.560611 77.053849 93.586486 77.053849 Z M 90.972505 61.852258 C 90.972505 59.779193 91.052443 57.231827 91.212319 54.212826 C 91.385519 51.193824 91.630663 48.009617 91.950416 44.65754 C 92.283492 41.305462 92.720488 38.134578 93.266733 35.142223 C 93.812977 32.136545 94.463142 29.68244 95.222555 27.77991 C 95.659551 26.690085 96.067236 25.946659 96.437617 25.546968 C 96.823985 25.133954 97.183707 24.928779 97.516783 24.928779 C 97.900487 24.928779 98.201587 25.120631 98.412091 25.506999 C 98.62526 25.880044 98.705198 26.197133 98.651906 26.463593 C 98.651906 26.583501 98.585291 26.876608 98.452061 27.342914 C 98.321495 27.793233 98.228233 28.214241 98.174941 28.597945 C 97.735281 30.287307 97.268974 32.50959 96.778686 35.262131 C 96.285734 38.014671 95.83275 40.940411 95.419736 44.039351 C 95.022709 47.13829 94.694963 50.077353 94.444489 52.85654 C 94.204675 55.635727 94.084767 57.844687 94.084767 59.478092 L 95.880713 56.547023 C 96.157833 56.000778 96.44561 55.497167 96.738717 55.03086 C 97.042483 54.564554 97.383553 54.140881 97.753933 53.754513 C 98.633254 52.558104 99.616494 51.620162 100.706319 50.940687 C 101.798809 50.263876 102.861987 49.922806 103.89852 49.922806 C 105.641174 49.922806 107.024106 50.847425 108.047315 52.696663 C 108.979928 54.49261 109.358303 56.102033 109.185103 57.524934 C 109.025227 58.934512 108.945289 60.269481 108.945289 61.53517 C 109.984486 60.988925 110.815844 60.549264 111.439362 60.216188 C 112.065545 59.885777 112.67574 59.531384 113.275277 59.161004 C 113.888137 58.774635 114.676861 58.228391 115.649443 57.524934 C 116.142396 57.138566 116.805883 56.592321 117.645235 55.888864 C 118.495245 55.182743 119.299957 54.519256 120.056706 53.893073 C 120.829442 53.256231 121.295749 52.936478 121.45296 52.936478 C 122.278989 52.936478 122.731973 53.115007 122.811911 53.474729 C 122.889184 53.834451 122.750625 54.244801 122.390903 54.711107 C 122.047168 55.164091 121.679452 55.569111 121.295749 55.928833 C 120.90938 56.288556 120.661572 56.49373 120.557652 56.547023 C 119.958115 57.199852 119.331932 57.770078 118.681768 58.26303 C 118.028939 58.753318 117.378774 59.299563 116.725945 59.8991 C 115.849289 60.495972 114.738147 61.188771 113.395185 61.972165 C 112.065545 62.758225 110.869136 63.469675 109.803292 64.106517 C 108.753437 64.7327 108.140577 65.151043 107.970042 65.364212 C 107.810165 65.643996 107.549034 66.254191 107.191976 67.200127 C 106.845577 68.156722 106.339301 69.273192 105.675814 70.552205 C 105.022985 71.828552 104.178304 73.104899 103.141771 74.381247 C 102.115897 75.670917 100.83955 76.782059 99.310064 77.712007 C 97.410199 78.908417 95.473028 79.507953 93.506547 79.507953 C 92.36343 79.507953 91.377525 79.22284 90.554161 78.64995 C 89.741456 78.077059 89.336435 77.160433 89.336435 75.897409 C 89.336435 74.701 89.88268 73.517914 90.972505 72.345486 C 92.06233 71.175723 93.399963 70.059252 94.98274 68.996073 C 96.565518 67.93023 98.140301 66.992288 99.709756 66.182247 C 101.292533 65.369541 102.576874 64.719377 103.560115 64.226424 C 104.316864 63.842721 104.791164 63.594912 104.977687 63.488328 C 105.174868 63.381743 105.388036 62.864809 105.614528 61.932196 C 105.987573 60.349419 106.14745 58.854574 106.094157 57.444996 C 106.040865 56.022095 105.80638 54.865655 105.39603 53.973011 C 104.996339 53.069709 104.383479 52.616725 103.560115 52.616725 C 102.523582 52.616725 101.220589 53.514698 99.651134 55.310644 C 98.281526 56.946714 97.183707 58.721343 96.357678 60.637197 C 95.547637 62.537062 94.881485 64.173132 94.364551 65.542741 C 93.844953 66.899026 93.312031 67.578502 92.768451 67.578502 C 92.06233 67.578502 91.585365 67.266742 91.332227 66.640559 C 91.092412 66.003718 90.972505 65.238975 90.972505 64.346332 C 90.972505 63.443029 90.972505 62.611671 90.972505 61.852258 Z M 118.83898 58.739995 C 118.83898 57.596878 119.113434 56.181971 119.657014 54.49261 C 120.203259 52.803248 120.960008 51.127209 121.93259 49.464493 C 122.91583 47.801778 124.045624 46.432169 125.324637 45.355667 C 126.614307 44.265842 127.962599 43.719598 129.372177 43.719598 C 130.688493 43.719598 131.754337 44.097972 132.564378 44.857385 C 133.390406 45.614134 133.880694 46.3922 134.040571 47.191582 C 134.200447 47.974977 133.928657 48.366675 133.222536 48.366675 C 132.678956 48.366675 132.119388 48.054916 131.546497 47.431397 C 130.976271 46.805214 130.310119 46.493455 129.55337 46.493455 C 128.953833 46.493455 128.22906 46.845183 127.37905 47.551305 C 126.539698 48.254761 125.516488 49.645687 124.306756 51.718752 C 123.760511 52.598073 123.254236 53.727867 122.790594 55.110799 C 122.33761 56.49373 122.111119 57.871333 122.111119 59.240942 C 122.217703 59.134357 122.257672 59.094388 122.231026 59.121034 C 122.20438 59.14768 122.297641 59.046425 122.51081 58.819934 L 123.168968 57.844687 C 123.608629 57.191858 124.11224 56.347177 124.68513 55.310644 C 125.258021 54.271447 125.841571 53.229585 126.441107 52.177065 C 127.03798 51.113886 127.584224 50.215913 128.077177 49.48581 C 128.567465 48.73972 128.948504 48.366675 129.2123 48.366675 C 130.198205 48.366675 130.768432 48.726397 130.928308 49.445841 C 131.088185 50.149298 131.1548 51.020625 131.128154 52.057157 C 131.101508 53.083032 131.202763 54.114235 131.42659 55.150768 C 131.746343 56.626961 132.244625 57.703463 132.9241 58.382938 C 133.614233 59.059748 134.392299 59.400818 135.258297 59.400818 C 136.787782 59.400818 138.477144 58.476199 140.323717 56.626961 C 141.096454 55.92084 141.642699 55.33729 141.959787 54.870984 C 142.292863 54.404677 142.732523 53.87442 143.276103 53.274883 C 143.649149 52.731303 144.134107 52.456849 144.733644 52.456849 C 145.333181 52.456849 145.591648 52.963124 145.51171 53.973011 C 145.431772 54.972239 144.360599 56.480407 142.300857 58.502845 L 139.846752 60.456003 C 138.263975 61.548493 136.73449 62.092073 135.258297 62.092073 C 133.902011 62.092073 132.718925 61.687052 131.706374 60.877011 C 130.696487 60.050983 129.918421 59.041096 129.372177 57.844687 C 128.828597 56.645613 128.554142 55.47585 128.554142 54.332733 C 128.183761 54.612517 127.74943 55.217383 127.259142 56.147331 C 126.76619 57.066621 126.233268 58.055191 125.663042 59.121034 C 125.090151 60.184213 124.506602 61.108832 123.907065 61.892227 C 123.307528 62.678287 122.710656 63.069984 122.111119 63.069984 C 120.581634 63.069984 119.651685 62.718256 119.318609 62.012135 C 118.998856 61.308678 118.83898 60.216188 118.83898 58.739995 Z M 118.83898 58.739995 " stroke="#fffef9" stroke-width="6.128468" stroke-opacity="1" stroke-miterlimit="4"/><g fill="#122620" fill-opacity="1"><g transform="translate(96.696567, 202.159744)"><g><path d="M 3.71875 -103.734375 C 4.113281 -104.046875 4.429688 -104.34375 4.671875 -104.625 C 4.910156 -104.90625 5.269531 -105.046875 5.75 -105.046875 C 7.1875 -105.046875 8.164062 -104.242188 8.6875 -102.640625 C 9.207031 -101.046875 9.503906 -99.148438 9.578125 -96.953125 C 9.660156 -94.765625 9.820312 -92.832031 10.0625 -91.15625 C 10.21875 -90.113281 10.335938 -88.59375 10.421875 -86.59375 C 10.503906 -84.601562 10.5625 -82.429688 10.59375 -80.078125 C 10.632812 -77.722656 10.65625 -75.503906 10.65625 -73.421875 C 10.65625 -71.347656 10.65625 -69.632812 10.65625 -68.28125 C 10.65625 -60.851562 10.457031 -53.003906 10.0625 -44.734375 C 9.664062 -36.472656 9.304688 -28.085938 8.984375 -19.578125 C 8.660156 -11.078125 8.554688 -2.753906 8.671875 5.390625 C 8.796875 13.535156 9.378906 21.160156 10.421875 28.265625 C 10.578125 29.222656 10.832031 30.859375 11.1875 33.171875 C 11.550781 35.492188 12.050781 37.972656 12.6875 40.609375 C 13.332031 43.242188 14.113281 45.554688 15.03125 47.546875 C 15.945312 49.546875 16.96875 50.742188 18.09375 51.140625 C 19.050781 50.503906 19.96875 49.25 20.84375 47.375 C 21.71875 45.5 22.554688 43.363281 23.359375 40.96875 C 24.160156 38.570312 24.878906 36.253906 25.515625 34.015625 C 26.148438 31.773438 26.707031 29.941406 27.1875 28.515625 L 44.4375 -27.671875 C 45.3125 -30.378906 46.148438 -33.070312 46.953125 -35.75 C 47.753906 -38.425781 48.550781 -41.082031 49.34375 -43.71875 C 49.582031 -44.519531 50.019531 -46.078125 50.65625 -48.390625 C 51.300781 -50.703125 52.0625 -53.296875 52.9375 -56.171875 C 53.820312 -59.046875 54.742188 -61.859375 55.703125 -64.609375 C 56.660156 -67.367188 57.597656 -69.644531 58.515625 -71.4375 C 59.429688 -73.238281 60.25 -74.140625 60.96875 -74.140625 C 62.082031 -74.140625 62.757812 -73.820312 63 -73.1875 C 63.238281 -72.550781 63.203125 -71.832031 62.890625 -71.03125 C 61.929688 -68.71875 61.148438 -66.757812 60.546875 -65.15625 C 59.953125 -63.5625 59.296875 -61.445312 58.578125 -58.8125 C 57.617188 -55.375 56.519531 -51.675781 55.28125 -47.71875 C 54.039062 -43.769531 52.800781 -39.800781 51.5625 -35.8125 C 50.320312 -31.820312 49.222656 -28.070312 48.265625 -24.5625 L 43.125 -7.546875 C 40.40625 0.597656 37.804688 9.101562 35.328125 17.96875 C 32.859375 26.832031 30.226562 35.335938 27.4375 43.484375 C 26.875 45.316406 26.148438 47.210938 25.265625 49.171875 C 24.390625 51.128906 23.3125 52.765625 22.03125 54.078125 C 20.757812 55.398438 19.164062 56.0625 17.25 56.0625 C 15.488281 56.0625 13.867188 54.921875 12.390625 52.640625 C 10.921875 50.367188 9.601562 47.472656 8.4375 43.953125 C 7.28125 40.441406 6.320312 36.75 5.5625 32.875 C 4.8125 29.007812 4.234375 25.398438 3.828125 22.046875 C 3.429688 18.691406 3.234375 16.132812 3.234375 14.375 L 2.390625 -2.875 C 2.390625 -15.09375 2.726562 -27.070312 3.40625 -38.8125 C 4.09375 -50.550781 4.4375 -62.445312 4.4375 -74.5 C 4.4375 -79.132812 4.316406 -84.066406 4.078125 -89.296875 C 3.835938 -94.523438 3.71875 -99.335938 3.71875 -103.734375 Z M 3.71875 -103.734375 "/></g></g></g><g fill="#122620" fill-opacity="1"><g transform="translate(149.277736, 202.159744)"><g><path d="M 0.125 -13.0625 C 0.125 -14.257812 0.257812 -15.953125 0.53125 -18.140625 C 0.8125 -20.335938 1.210938 -22.570312 1.734375 -24.84375 C 2.253906 -27.125 2.875 -29.0625 3.59375 -30.65625 C 4.3125 -32.257812 5.109375 -33.0625 5.984375 -33.0625 C 6.546875 -33.0625 6.90625 -33.019531 7.0625 -32.9375 C 7.226562 -32.851562 7.507812 -32.773438 7.90625 -32.703125 C 8.539062 -31.335938 8.597656 -29.617188 8.078125 -27.546875 C 7.566406 -25.472656 7.109375 -23.195312 6.703125 -20.71875 C 6.148438 -17.207031 5.691406 -14.09375 5.328125 -11.375 C 4.972656 -8.664062 5.191406 -5.59375 5.984375 -2.15625 C 7.179688 -2.476562 8.421875 -3.476562 9.703125 -5.15625 C 10.984375 -6.832031 12.238281 -8.804688 13.46875 -11.078125 C 14.707031 -13.359375 15.785156 -15.515625 16.703125 -17.546875 C 17.628906 -19.585938 18.332031 -21.125 18.8125 -22.15625 C 19.207031 -22.957031 19.601562 -23.875 20 -24.90625 C 20.40625 -25.945312 20.882812 -26.882812 21.4375 -27.71875 C 22 -28.5625 22.640625 -28.984375 23.359375 -28.984375 C 24.160156 -28.984375 24.5625 -28.5625 24.5625 -27.71875 C 24.5625 -26.882812 24.335938 -25.867188 23.890625 -24.671875 C 23.453125 -23.472656 22.972656 -22.273438 22.453125 -21.078125 C 21.941406 -19.878906 21.523438 -18.960938 21.203125 -18.328125 C 20.722656 -17.367188 19.960938 -15.769531 18.921875 -13.53125 C 17.890625 -11.300781 16.671875 -8.945312 15.265625 -6.46875 C 13.867188 -3.988281 12.351562 -1.890625 10.71875 -0.171875 C 9.082031 1.535156 7.46875 2.390625 5.875 2.390625 C 4.75 2.390625 3.671875 1.875 2.640625 0.84375 C 1.597656 -0.195312 0.914062 -1.535156 0.59375 -3.171875 C 0.28125 -4.804688 0.125 -6.519531 0.125 -8.3125 C 0.125 -10.113281 0.125 -11.695312 0.125 -13.0625 Z M 0.125 -13.0625 "/></g></g></g><g fill="#122620" fill-opacity="1"><g transform="translate(175.02934, 202.159744)"><g><path d="M 5.515625 -21.6875 C 7.023438 -22.476562 8.695312 -23.570312 10.53125 -24.96875 C 12.375 -26.375 13.375 -28.035156 13.53125 -29.953125 C 12.5 -29.785156 11.398438 -29.222656 10.234375 -28.265625 C 9.078125 -27.304688 8.078125 -26.226562 7.234375 -25.03125 C 6.398438 -23.832031 5.828125 -22.71875 5.515625 -21.6875 Z M 0.125 -18.8125 C 0.125 -20.800781 0.78125 -22.953125 2.09375 -25.265625 C 3.414062 -27.585938 5.050781 -29.566406 7 -31.203125 C 8.957031 -32.835938 10.894531 -33.65625 12.8125 -33.65625 C 15.445312 -33.65625 16.820312 -32.65625 16.9375 -30.65625 C 17.0625 -28.664062 16.207031 -26.515625 14.375 -24.203125 C 13.414062 -23.160156 11.976562 -21.957031 10.0625 -20.59375 C 8.144531 -19.238281 6.269531 -18.484375 4.4375 -18.328125 C 4.4375 -17.046875 4.472656 -15.90625 4.546875 -14.90625 C 4.628906 -13.914062 5.191406 -12.898438 6.234375 -11.859375 C 7.265625 -10.816406 8.582031 -10.296875 10.1875 -10.296875 C 12.257812 -10.296875 14.410156 -10.953125 16.640625 -12.265625 C 18.878906 -13.585938 20.597656 -14.691406 21.796875 -15.578125 C 22.273438 -15.972656 22.65625 -16.289062 22.9375 -16.53125 C 23.21875 -16.769531 23.554688 -17.050781 23.953125 -17.375 C 25.628906 -18.644531 26.6875 -19.578125 27.125 -20.171875 C 27.570312 -20.773438 27.953125 -21.175781 28.265625 -21.375 C 28.585938 -21.582031 29.347656 -21.6875 30.546875 -21.6875 C 30.703125 -20.800781 30.757812 -20.195312 30.71875 -19.875 C 30.675781 -19.5625 30.378906 -19.085938 29.828125 -18.453125 C 28.390625 -17.015625 26.570312 -15.375 24.375 -13.53125 C 22.175781 -11.695312 19.816406 -10.097656 17.296875 -8.734375 C 14.785156 -7.378906 12.296875 -6.703125 9.828125 -6.703125 C 8.546875 -6.703125 7.328125 -6.921875 6.171875 -7.359375 C 5.015625 -7.804688 3.914062 -8.546875 2.875 -9.578125 C 1.4375 -11.015625 0.617188 -12.492188 0.421875 -14.015625 C 0.222656 -15.535156 0.125 -17.132812 0.125 -18.8125 Z M 0.125 -18.8125 "/></g></g></g><g fill="#122620" fill-opacity="1"><g transform="translate(201.020493, 202.159744)"><g><path d="M 5.515625 14.734375 C 7.910156 14.734375 10.082031 13.875 12.03125 12.15625 C 13.988281 10.4375 15.6875 8.421875 17.125 6.109375 C 18.5625 3.796875 19.757812 1.757812 20.71875 0 C 20.238281 0.15625 19.28125 0.59375 17.84375 1.3125 C 16.40625 2.03125 14.96875 2.789062 13.53125 3.59375 C 12.09375 4.394531 11.097656 4.992188 10.546875 5.390625 C 9.503906 6.023438 8.382812 6.863281 7.1875 7.90625 C 5.988281 8.945312 4.96875 9.984375 4.125 11.015625 C 3.289062 12.054688 2.929688 12.9375 3.046875 13.65625 C 3.171875 14.375 3.992188 14.734375 5.515625 14.734375 Z M 1.671875 -7.546875 C 1.671875 -10.578125 1.789062 -14.304688 2.03125 -18.734375 C 2.269531 -23.171875 2.628906 -27.84375 3.109375 -32.75 C 3.585938 -37.664062 4.226562 -42.316406 5.03125 -46.703125 C 5.832031 -51.097656 6.789062 -54.695312 7.90625 -57.5 C 8.539062 -59.09375 9.140625 -60.1875 9.703125 -60.78125 C 10.265625 -61.382812 10.785156 -61.6875 11.265625 -61.6875 C 11.816406 -61.6875 12.253906 -61.40625 12.578125 -60.84375 C 12.898438 -60.289062 13.019531 -59.8125 12.9375 -59.40625 C 12.9375 -59.25 12.835938 -58.832031 12.640625 -58.15625 C 12.441406 -57.476562 12.300781 -56.859375 12.21875 -56.296875 C 11.582031 -53.816406 10.90625 -50.5625 10.1875 -46.53125 C 9.46875 -42.5 8.804688 -38.207031 8.203125 -33.65625 C 7.609375 -29.101562 7.128906 -24.789062 6.765625 -20.71875 C 6.410156 -16.644531 6.234375 -13.410156 6.234375 -11.015625 L 8.859375 -15.328125 C 9.265625 -16.128906 9.6875 -16.867188 10.125 -17.546875 C 10.5625 -18.222656 11.0625 -18.84375 11.625 -19.40625 C 12.894531 -21.164062 14.328125 -22.539062 15.921875 -23.53125 C 17.523438 -24.53125 19.085938 -25.03125 20.609375 -25.03125 C 23.160156 -25.03125 25.195312 -23.675781 26.71875 -20.96875 C 28.070312 -18.332031 28.628906 -15.972656 28.390625 -13.890625 C 28.148438 -11.816406 28.03125 -9.863281 28.03125 -8.03125 C 29.539062 -8.820312 30.753906 -9.457031 31.671875 -9.9375 C 32.597656 -10.414062 33.5 -10.9375 34.375 -11.5 C 35.25 -12.0625 36.40625 -12.859375 37.84375 -13.890625 C 38.5625 -14.453125 39.539062 -15.25 40.78125 -16.28125 C 42.019531 -17.320312 43.195312 -18.300781 44.3125 -19.21875 C 45.4375 -20.144531 46.117188 -20.609375 46.359375 -20.609375 C 47.554688 -20.609375 48.210938 -20.347656 48.328125 -19.828125 C 48.453125 -19.304688 48.253906 -18.707031 47.734375 -18.03125 C 47.210938 -17.351562 46.671875 -16.753906 46.109375 -16.234375 C 45.554688 -15.710938 45.195312 -15.410156 45.03125 -15.328125 C 44.15625 -14.367188 43.238281 -13.53125 42.28125 -12.8125 C 41.320312 -12.09375 40.363281 -11.296875 39.40625 -10.421875 C 38.125 -9.546875 36.503906 -8.523438 34.546875 -7.359375 C 32.597656 -6.203125 30.84375 -5.164062 29.28125 -4.25 C 27.726562 -3.332031 26.832031 -2.710938 26.59375 -2.390625 C 26.351562 -1.992188 25.972656 -1.097656 25.453125 0.296875 C 24.929688 1.691406 24.191406 3.328125 23.234375 5.203125 C 22.273438 7.085938 21.035156 8.96875 19.515625 10.84375 C 18.003906 12.71875 16.128906 14.332031 13.890625 15.6875 C 11.097656 17.445312 8.265625 18.328125 5.390625 18.328125 C 3.710938 18.328125 2.273438 17.90625 1.078125 17.0625 C -0.117188 16.226562 -0.71875 14.894531 -0.71875 13.0625 C -0.71875 11.300781 0.078125 9.5625 1.671875 7.84375 C 3.273438 6.125 5.234375 4.484375 7.546875 2.921875 C 9.859375 1.367188 12.171875 -0.00390625 14.484375 -1.203125 C 16.804688 -2.398438 18.6875 -3.359375 20.125 -4.078125 C 21.238281 -4.628906 21.9375 -4.984375 22.21875 -5.140625 C 22.5 -5.304688 22.800781 -6.066406 23.125 -7.421875 C 23.675781 -9.742188 23.910156 -11.941406 23.828125 -14.015625 C 23.753906 -16.085938 23.414062 -17.78125 22.8125 -19.09375 C 22.21875 -20.414062 21.320312 -21.078125 20.125 -21.078125 C 18.601562 -21.078125 16.6875 -19.757812 14.375 -17.125 C 12.375 -14.726562 10.773438 -12.132812 9.578125 -9.34375 C 8.378906 -6.550781 7.398438 -4.15625 6.640625 -2.15625 C 5.890625 -0.15625 5.113281 0.84375 4.3125 0.84375 C 3.269531 0.84375 2.566406 0.382812 2.203125 -0.53125 C 1.847656 -1.457031 1.671875 -2.578125 1.671875 -3.890625 C 1.671875 -5.210938 1.671875 -6.429688 1.671875 -7.546875 Z M 1.671875 -7.546875 "/></g></g></g><g fill="#122620" fill-opacity="1"><g transform="translate(243.540576, 202.159744)"><g><path d="M 0 -12.09375 C 0 -13.769531 0.394531 -15.847656 1.1875 -18.328125 C 1.988281 -20.804688 3.109375 -23.257812 4.546875 -25.6875 C 5.984375 -28.125 7.640625 -30.140625 9.515625 -31.734375 C 11.398438 -33.335938 13.378906 -34.140625 15.453125 -34.140625 C 17.367188 -34.140625 18.925781 -33.578125 20.125 -32.453125 C 21.320312 -31.335938 22.039062 -30.203125 22.28125 -29.046875 C 22.519531 -27.890625 22.117188 -27.3125 21.078125 -27.3125 C 20.285156 -27.3125 19.46875 -27.769531 18.625 -28.6875 C 17.789062 -29.601562 16.8125 -30.0625 15.6875 -30.0625 C 14.8125 -30.0625 13.753906 -29.539062 12.515625 -28.5 C 11.273438 -27.46875 9.78125 -25.4375 8.03125 -22.40625 C 7.226562 -21.125 6.488281 -19.460938 5.8125 -17.421875 C 5.132812 -15.390625 4.796875 -13.375 4.796875 -11.375 C 4.953125 -11.539062 5.007812 -11.601562 4.96875 -11.5625 C 4.925781 -11.519531 5.066406 -11.660156 5.390625 -11.984375 L 6.34375 -13.421875 C 6.988281 -14.378906 7.726562 -15.613281 8.5625 -17.125 C 9.40625 -18.644531 10.265625 -20.179688 11.140625 -21.734375 C 12.015625 -23.296875 12.8125 -24.613281 13.53125 -25.6875 C 14.25 -26.769531 14.8125 -27.3125 15.21875 -27.3125 C 16.65625 -27.3125 17.492188 -26.789062 17.734375 -25.75 C 17.972656 -24.71875 18.070312 -23.441406 18.03125 -21.921875 C 17.988281 -20.398438 18.128906 -18.882812 18.453125 -17.375 C 18.929688 -15.21875 19.664062 -13.640625 20.65625 -12.640625 C 21.65625 -11.640625 22.796875 -11.140625 24.078125 -11.140625 C 26.316406 -11.140625 28.789062 -12.5 31.5 -15.21875 C 32.613281 -16.25 33.410156 -17.101562 33.890625 -17.78125 C 34.367188 -18.46875 35.007812 -19.25 35.8125 -20.125 C 36.375 -20.925781 37.09375 -21.328125 37.96875 -21.328125 C 38.84375 -21.328125 39.21875 -20.585938 39.09375 -19.109375 C 38.976562 -17.628906 37.40625 -15.410156 34.375 -12.453125 L 30.78125 -9.578125 C 28.46875 -7.984375 26.234375 -7.1875 24.078125 -7.1875 C 22.078125 -7.1875 20.335938 -7.785156 18.859375 -8.984375 C 17.390625 -10.179688 16.253906 -11.65625 15.453125 -13.40625 C 14.648438 -15.164062 14.25 -16.882812 14.25 -18.5625 C 13.695312 -18.164062 13.0625 -17.285156 12.34375 -15.921875 C 11.625 -14.566406 10.84375 -13.109375 10 -11.546875 C 9.164062 -9.992188 8.304688 -8.640625 7.421875 -7.484375 C 6.546875 -6.328125 5.671875 -5.75 4.796875 -5.75 C 2.554688 -5.75 1.195312 -6.265625 0.71875 -7.296875 C 0.238281 -8.335938 0 -9.9375 0 -12.09375 Z M 0 -12.09375 "/></g></g></g></svg>