<svg xmlns="http://www.w3.org/2000/svg" xmlns:xlink="http://www.w3.org/1999/xlink" width="500" zoomAndPan="magnify" viewBox="0 0 375 374.999991" height="500" preserveAspectRatio="xMidYMid meet" version="1.0"><defs><g/><clipPath id="cb9b76c10e"><path d="M 92.113281 90.816406 L 279.613281 90.816406 L 279.613281 278 L 92.113281 278 Z M 92.113281 90.816406 " clip-rule="nonzero"/></clipPath></defs><g clip-path="url(#cb9b76c10e)"><path fill="#122620" d="M 185.699219 277.988281 C 133.996094 277.988281 92.113281 235.816406 92.113281 184.402344 C 92.113281 132.988281 133.996094 90.816406 185.699219 90.816406 C 237.402344 90.816406 279.285156 132.699219 279.285156 184.402344 C 279.285156 236.105469 237.113281 277.988281 185.699219 277.988281 Z M 185.699219 96.59375 C 137.175781 96.59375 97.890625 135.875 97.890625 184.402344 C 97.890625 232.929688 137.175781 272.210938 185.699219 272.210938 C 234.226562 272.210938 273.507812 232.929688 273.507812 184.402344 C 273.507812 135.875 233.9375 96.59375 185.699219 96.59375 Z M 185.699219 96.59375 " fill-opacity="1" fill-rule="nonzero"/></g><path stroke-linecap="butt" transform="matrix(1.465975, 0, 0, 1.465975, 69.32406, 91.156364)" fill="none" stroke-linejoin="miter" d="M 21.205062 -3.757176 C 21.471523 -3.983668 21.684692 -4.191507 21.844568 -4.375365 C 22.017768 -4.561888 22.268241 -4.655149 22.601317 -4.655149 C 23.573899 -4.655149 24.237387 -4.111569 24.597109 -3.019079 C 24.956831 -1.929255 25.162006 -0.63159 25.215298 0.871249 C 25.26859 2.360765 25.375174 3.677082 25.535051 4.820199 C 25.641635 5.523655 25.721573 6.562853 25.774866 7.932461 C 25.825493 9.288747 25.865462 10.770269 25.892108 12.379693 C 25.932078 13.989116 25.953394 15.505278 25.953394 16.928179 C 25.953394 18.337757 25.953394 19.502191 25.953394 20.418816 C 25.953394 25.486902 25.814835 30.8401 25.535051 36.478411 C 25.26859 42.116723 25.023446 47.842966 24.796954 53.654477 C 24.583786 59.452665 24.51717 65.125617 24.597109 70.670667 C 24.677047 76.22904 25.068744 81.435685 25.774866 86.290601 C 25.892108 86.940766 26.073302 88.051907 26.313117 89.621362 C 26.552931 91.204139 26.891337 92.893501 27.328332 94.689447 C 27.767993 96.498716 28.300914 98.078829 28.924433 99.437779 C 29.550616 100.807388 30.243414 101.625423 31.000163 101.889219 C 31.666315 101.452223 32.297827 100.594219 32.894699 99.317872 C 33.494236 98.041524 34.064462 96.583984 34.610707 94.947914 C 35.156952 93.311844 35.641911 91.729067 36.068248 90.199582 C 36.505244 88.68342 36.891612 87.433718 37.224688 86.450478 L 48.994263 48.128079 C 49.591136 46.278841 50.164027 44.445591 50.710271 42.622998 C 51.253851 40.787083 51.800096 38.972485 52.346341 37.176539 C 52.506217 36.630294 52.79666 35.567115 53.222997 33.984338 C 53.662657 32.40156 54.179591 30.63226 54.779128 28.679102 C 55.378665 26.72328 56.002184 24.807426 56.655013 22.934207 C 57.3185 21.044999 57.963335 19.488868 58.589518 18.265813 C 59.213037 17.042757 59.772605 16.429898 60.265557 16.429898 C 61.022306 16.429898 61.480619 16.648395 61.640495 17.088056 C 61.813695 17.514393 61.787049 17.999352 61.560557 18.545597 C 60.910392 20.128374 60.377471 21.463343 59.964456 22.553168 C 59.56743 23.645657 59.12244 25.08721 58.629488 26.883156 C 57.976658 29.222683 57.225239 31.743402 56.375229 34.44265 C 55.535877 37.13124 54.693861 39.835818 53.841186 42.561712 C 53.004499 45.290271 52.258409 47.848295 51.608244 50.243778 L 48.09629 61.853477 C 46.233729 67.411851 44.4591 73.210039 42.769738 79.248041 C 41.080376 85.299367 39.28443 91.105549 37.384565 96.663922 C 36.998196 97.913623 36.505244 99.203294 35.908371 100.532933 C 35.308835 101.875896 34.570738 102.995032 33.694082 103.885011 C 32.828084 104.788313 31.746253 105.241296 30.440595 105.241296 C 29.244186 105.241296 28.141038 104.463231 27.131151 102.907099 C 26.1186 101.350968 25.215298 99.376493 24.415915 96.983675 C 23.63252 94.588192 22.979691 92.070137 22.462757 89.421516 C 21.956482 86.788883 21.564784 84.329449 21.285 82.040551 C 21.01854 79.754317 20.885309 78.011663 20.885309 76.815254 L 20.307089 65.045678 C 20.307089 56.705454 20.541575 48.5331 21.005217 40.528616 C 21.471523 32.521468 21.703344 24.402406 21.703344 16.171431 C 21.703344 13.019199 21.618076 9.661792 21.444877 6.096546 C 21.285 2.517977 21.205062 -0.764821 21.205062 -3.757176 Z M 54.619252 58.101709 C 54.619252 57.278345 54.712513 56.121905 54.899036 54.632389 C 55.098881 53.129549 55.370671 51.600064 55.717071 50.043933 C 56.076793 48.487802 56.500465 47.171485 56.993418 46.094983 C 57.486371 45.002494 58.029951 44.458914 58.629488 44.458914 C 59.002533 44.458914 59.239683 44.48556 59.346267 44.538852 C 59.466175 44.592144 59.660691 44.645436 59.924487 44.696064 C 60.364148 45.615354 60.404117 46.785117 60.044395 48.208018 C 59.70066 49.617595 59.386236 51.168398 59.109117 52.855095 C 58.736072 55.263901 58.421648 57.390258 58.171175 59.239497 C 57.93136 61.088735 58.083243 63.183117 58.629488 65.522643 C 59.439529 65.312139 60.27888 64.632664 61.142213 63.489547 C 62.021534 62.34643 62.876873 60.995473 63.716225 59.439342 C 64.566235 57.883211 65.304332 56.415012 65.930515 55.03208 C 66.556698 53.63316 67.033663 52.583305 67.366739 51.879848 C 67.646522 51.333603 67.918313 50.70742 68.184773 50.003964 C 68.464557 49.297842 68.789639 48.661001 69.162685 48.08811 C 69.546388 47.517884 69.986049 47.230106 70.479001 47.230106 C 71.022581 47.230106 71.297036 47.517884 71.297036 48.08811 C 71.297036 48.661001 71.142489 49.359128 70.838723 50.182492 C 70.545616 50.995198 70.220534 51.813233 69.860812 52.636597 C 69.50109 53.449302 69.215977 54.067492 69.002808 54.491164 C 68.669732 55.143993 68.150133 56.233818 67.446677 57.763303 C 66.740556 59.292789 65.909198 60.902212 64.952603 62.591574 C 64.009332 64.280936 62.978129 65.709166 61.861658 66.881593 C 60.742522 68.051357 59.639374 68.634906 58.549549 68.634906 C 57.776813 68.634906 57.038716 68.283178 56.33526 67.579721 C 55.629138 66.860277 55.165497 65.943651 54.939005 64.824516 C 54.725836 63.708045 54.619252 62.538282 54.619252 61.315226 C 54.619252 60.092171 54.619252 59.020999 54.619252 58.101709 Z M 75.856181 52.218253 C 76.892714 51.672009 78.038495 50.920589 79.288197 49.963995 C 80.551221 49.0074 81.236025 47.874942 81.34261 46.571948 C 80.636489 46.678532 79.885069 47.056907 79.088351 47.709736 C 78.302292 48.362565 77.625481 49.100661 77.05259 49.924025 C 76.482364 50.734066 76.082673 51.498809 75.856181 52.218253 Z M 72.184351 54.174076 C 72.184351 52.815126 72.632005 51.346926 73.521984 49.764149 C 74.425286 48.181372 75.544422 46.83308 76.874061 45.713944 C 78.217024 44.597473 79.53867 44.037905 80.844328 44.037905 C 82.637609 44.037905 83.575552 44.72271 83.65549 46.094983 C 83.748751 47.451269 83.170531 48.919468 81.92083 50.502245 C 81.254678 51.208367 80.271437 52.026402 78.968444 52.95635 C 77.66545 53.872975 76.389103 54.38458 75.136737 54.491164 C 75.136737 55.370485 75.163383 56.148551 75.216675 56.825361 C 75.269967 57.504836 75.651006 58.19497 76.354463 58.901091 C 77.060584 59.617871 77.958557 59.977593 79.048382 59.977593 C 80.471283 59.977593 81.939482 59.532603 83.455644 58.642624 C 84.98513 57.736657 86.157557 56.985238 86.967598 56.388366 C 87.300674 56.108582 87.559141 55.887419 87.745664 55.730207 C 87.945509 55.557008 88.17733 55.362491 88.443791 55.149323 C 89.586908 54.285989 90.306353 53.646483 90.599459 53.236134 C 90.903225 52.823119 91.164356 52.551329 91.377525 52.418099 C 91.601352 52.284869 92.120951 52.218253 92.930992 52.218253 C 93.050899 52.815126 93.098862 53.222811 93.072216 53.435979 C 93.04557 53.646483 92.840395 53.97423 92.454027 54.411226 C 91.468122 55.397131 90.226414 56.513602 88.723575 57.763303 C 87.234059 59.013005 85.629965 60.105494 83.916622 61.035443 C 82.200614 61.965391 80.497929 62.431697 78.808567 62.431697 C 77.931911 62.431697 77.100553 62.285144 76.314494 61.992037 C 75.531099 61.688272 74.779679 61.174002 74.060235 60.457223 C 73.090317 59.487305 72.53075 58.482748 72.384196 57.44355 C 72.250966 56.407018 72.184351 55.317193 72.184351 54.174076 Z M 93.586486 77.055068 C 95.222555 77.055068 96.704077 76.468855 98.033717 75.299092 C 99.37668 74.129328 100.535784 72.751726 101.505702 71.168948 C 102.488942 69.586171 103.314971 68.19791 103.978458 66.998836 C 103.645382 67.105421 102.987224 67.406521 102.003984 67.896809 C 101.034066 68.389762 100.056155 68.909361 99.072914 69.452941 C 98.087009 69.999185 97.402205 70.404206 97.015837 70.670667 C 96.31238 71.110327 95.547637 71.680553 94.721609 72.386675 C 93.911568 73.103454 93.21877 73.814905 92.648543 74.521026 C 92.075653 75.224482 91.830509 75.824019 91.910447 76.316972 C 92.003708 76.80726 92.560611 77.055068 93.586486 77.055068 Z M 90.972505 61.853477 C 90.972505 59.777747 91.052443 57.233046 91.212319 54.214045 C 91.385519 51.195044 91.630663 48.008172 91.950416 44.656095 C 92.283492 41.306682 92.720488 38.133133 93.266733 35.140778 C 93.812977 32.1351 94.463142 29.68366 95.222555 27.781129 C 95.659551 26.691305 96.067236 25.945214 96.437617 25.545523 C 96.823985 25.135173 97.183707 24.927334 97.516783 24.927334 C 97.900487 24.927334 98.201587 25.12185 98.412091 25.505554 C 98.62526 25.878599 98.705198 26.198352 98.651906 26.464813 C 98.651906 26.58472 98.585291 26.875163 98.452061 27.341469 C 98.321495 27.794452 98.228233 28.212796 98.174941 28.599164 C 97.735281 30.288526 97.268974 32.508145 96.778686 35.260685 C 96.285734 38.013226 95.83275 40.94163 95.419736 44.037905 C 95.022709 47.136845 94.694963 50.075908 94.444489 52.855095 C 94.204675 55.636946 94.084767 57.843242 94.084767 59.479311 L 95.880713 56.545577 C 96.157833 56.001997 96.44561 55.495722 96.738717 55.03208 C 97.042483 54.565773 97.383553 54.139436 97.753933 53.753068 C 98.633254 52.556659 99.616494 51.618716 100.706319 50.941906 C 101.798809 50.262431 102.861987 49.924025 103.89852 49.924025 C 105.641174 49.924025 107.024106 50.848645 108.047315 52.697883 C 108.979928 54.491164 109.358303 56.100588 109.185103 57.523489 C 109.025227 58.933067 108.945289 60.2707 108.945289 61.533724 C 109.984486 60.98748 110.815844 60.550484 111.439362 60.217408 C 112.065545 59.884332 112.67574 59.532603 113.275277 59.159558 C 113.888137 58.77319 114.676861 58.22961 115.649443 57.523489 C 116.142396 57.139785 116.805883 56.59354 117.645235 55.887419 C 118.495245 55.183962 119.299957 54.51781 120.056706 53.894292 C 120.829442 53.254786 121.295749 52.935033 121.45296 52.935033 C 122.278989 52.935033 122.731973 53.116226 122.811911 53.475948 C 122.889184 53.833006 122.750625 54.24602 122.390903 54.712327 C 122.047168 55.162646 121.679452 55.570331 121.295749 55.927388 C 120.90938 56.28711 120.661572 56.49495 120.557652 56.545577 C 119.958115 57.198406 119.331932 57.771297 118.681768 58.261585 C 118.028939 58.754538 117.378774 59.300783 116.725945 59.897655 C 115.849289 60.497192 114.738147 61.187325 113.395185 61.973385 C 112.065545 62.75678 110.869136 63.46823 109.803292 64.107736 C 108.753437 64.731254 108.140577 65.152263 107.970042 65.365431 C 107.810165 65.642551 107.549034 66.255411 107.191976 67.198682 C 106.845577 68.157941 106.339301 69.274412 105.675814 70.550759 C 105.022985 71.827107 104.178304 73.103454 103.141771 74.379802 C 102.115897 75.672137 100.83955 76.780614 99.310064 77.713227 C 97.410199 78.909636 95.473028 79.509173 93.506547 79.509173 C 92.36343 79.509173 91.377525 79.221395 90.554161 78.651169 C 89.741456 78.078278 89.336435 77.161653 89.336435 75.895964 C 89.336435 74.699555 89.88268 73.516468 90.972505 72.346705 C 92.06233 71.176942 93.399963 70.057807 94.98274 68.994628 C 96.565518 67.931449 98.140301 66.993507 99.709756 66.180801 C 101.292533 65.370761 102.576874 64.717931 103.560115 64.227643 C 104.316864 63.841275 104.791164 63.596131 104.977687 63.489547 C 105.174868 63.382963 105.388036 62.863364 105.614528 61.933416 C 105.987573 60.350638 106.14745 58.853128 106.094157 57.44355 C 106.040865 56.02065 105.80638 54.864209 105.39603 53.97423 C 104.996339 53.068263 104.383479 52.617945 103.560115 52.617945 C 102.523582 52.617945 101.220589 53.515918 99.651134 55.309199 C 98.281526 56.945269 97.183707 58.722562 96.357678 60.635751 C 95.547637 62.538282 94.881485 64.174351 94.364551 65.54396 C 93.844953 66.900246 93.312031 67.579721 92.768451 67.579721 C 92.06233 67.579721 91.585365 67.265297 91.332227 66.641779 C 91.092412 66.002273 90.972505 65.23753 90.972505 64.347551 C 90.972505 63.441584 90.972505 62.610226 90.972505 61.853477 Z M 118.83898 58.741215 C 118.83898 57.598098 119.113434 56.180526 119.657014 54.491164 C 120.203259 52.804467 120.960008 51.128428 121.93259 49.465713 C 122.91583 47.802997 124.045624 46.433388 125.324637 45.356887 C 126.614307 44.264397 127.962599 43.720817 129.372177 43.720817 C 130.688493 43.720817 131.754337 44.099191 132.564378 44.85594 C 133.390406 45.615354 133.880694 46.393419 134.040571 47.190137 C 134.200447 47.976197 133.928657 48.367894 133.222536 48.367894 C 132.678956 48.367894 132.119388 48.056135 131.546497 47.429952 C 130.976271 46.806434 130.310119 46.49201 129.55337 46.49201 C 128.953833 46.49201 128.22906 46.846403 127.37905 47.549859 C 126.539698 48.255981 125.516488 49.644242 124.306756 51.719972 C 123.760511 52.596628 123.254236 53.726422 122.790594 55.109353 C 122.33761 56.49495 122.111119 57.869888 122.111119 59.239497 C 122.217703 59.132912 122.257672 59.092943 122.231026 59.119589 C 122.20438 59.146235 122.297641 59.047645 122.51081 58.821153 L 123.168968 57.843242 C 123.608629 57.193077 124.11224 56.348396 124.68513 55.309199 C 125.258021 54.272666 125.841571 53.22814 126.441107 52.178284 C 127.03798 51.115105 127.584224 50.217132 128.077177 49.484365 C 128.567465 48.740939 128.948504 48.367894 129.2123 48.367894 C 130.198205 48.367894 130.768432 48.727616 130.928308 49.444396 C 131.088185 50.150517 131.1548 51.021844 131.128154 52.058377 C 131.101508 53.081586 131.202763 54.11279 131.42659 55.149323 C 131.746343 56.625516 132.244625 57.704682 132.9241 58.381493 C 133.614233 59.060968 134.392299 59.399373 135.258297 59.399373 C 136.787782 59.399373 138.477144 58.474754 140.323717 56.625516 C 141.096454 55.922059 141.642699 55.335845 141.959787 54.872203 C 142.292863 54.405897 142.732523 53.872975 143.276103 53.276103 C 143.649149 52.729858 144.134107 52.458068 144.733644 52.458068 C 145.333181 52.458068 145.591648 52.961679 145.51171 53.97423 C 145.431772 54.970794 144.360599 56.481627 142.300857 58.5014 L 139.846752 60.457223 C 138.263975 61.547047 136.73449 62.093292 135.258297 62.093292 C 133.902011 62.093292 132.718925 61.688272 131.706374 60.875566 C 130.696487 60.052202 129.918421 59.039651 129.372177 57.843242 C 128.828597 56.646833 128.554142 55.477069 128.554142 54.331288 C 128.183761 54.611072 127.74943 55.215938 127.259142 56.148551 C 126.76619 57.065176 126.233268 58.05641 125.663042 59.119589 C 125.090151 60.185433 124.506602 61.107387 123.907065 61.893447 C 123.307528 62.676841 122.710656 63.071203 122.111119 63.071203 C 120.581634 63.071203 119.651685 62.716811 119.318609 62.013354 C 118.998856 61.307233 118.83898 60.217408 118.83898 58.741215 Z M 118.83898 58.741215 " stroke="#fffef9" stroke-width="6.128468" stroke-opacity="1" stroke-miterlimit="4"/><g fill="#122620" fill-opacity="1"><g transform="translate(96.696567, 189.376706)"><g><path d="M 3.71875 -103.734375 C 4.113281 -104.046875 4.429688 -104.34375 4.671875 -104.625 C 4.910156 -104.90625 5.269531 -105.046875 5.75 -105.046875 C 7.1875 -105.046875 8.164062 -104.242188 8.6875 -102.640625 C 9.207031 -101.046875 9.503906 -99.148438 9.578125 -96.953125 C 9.660156 -94.765625 9.820312 -92.832031 10.0625 -91.15625 C 10.21875 -90.113281 10.335938 -88.59375 10.421875 -86.59375 C 10.503906 -84.601562 10.5625 -82.429688 10.59375 -80.078125 C 10.632812 -77.722656 10.65625 -75.503906 10.65625 -73.421875 C 10.65625 -71.347656 10.65625 -69.632812 10.65625 -68.28125 C 10.65625 -60.851562 10.457031 -53.003906 10.0625 -44.734375 C 9.664062 -36.472656 9.304688 -28.085938 8.984375 -19.578125 C 8.660156 -11.078125 8.554688 -2.753906 8.671875 5.390625 C 8.796875 13.535156 9.378906 21.160156 10.421875 28.265625 C 10.578125 29.222656 10.832031 30.859375 11.1875 33.171875 C 11.550781 35.492188 12.050781 37.972656 12.6875 40.609375 C 13.332031 43.242188 14.113281 45.554688 15.03125 47.546875 C 15.945312 49.546875 16.96875 50.742188 18.09375 51.140625 C 19.050781 50.503906 19.96875 49.25 20.84375 47.375 C 21.71875 45.5 22.554688 43.363281 23.359375 40.96875 C 24.160156 38.570312 24.878906 36.253906 25.515625 34.015625 C 26.148438 31.773438 26.707031 29.941406 27.1875 28.515625 L 44.4375 -27.671875 C 45.3125 -30.378906 46.148438 -33.070312 46.953125 -35.75 C 47.753906 -38.425781 48.550781 -41.082031 49.34375 -43.71875 C 49.582031 -44.519531 50.019531 -46.078125 50.65625 -48.390625 C 51.300781 -50.703125 52.0625 -53.296875 52.9375 -56.171875 C 53.820312 -59.046875 54.742188 -61.859375 55.703125 -64.609375 C 56.660156 -67.367188 57.597656 -69.644531 58.515625 -71.4375 C 59.429688 -73.238281 60.25 -74.140625 60.96875 -74.140625 C 62.082031 -74.140625 62.757812 -73.820312 63 -73.1875 C 63.238281 -72.550781 63.203125 -71.832031 62.890625 -71.03125 C 61.929688 -68.71875 61.148438 -66.757812 60.546875 -65.15625 C 59.953125 -63.5625 59.296875 -61.445312 58.578125 -58.8125 C 57.617188 -55.375 56.519531 -51.675781 55.28125 -47.71875 C 54.039062 -43.769531 52.800781 -39.800781 51.5625 -35.8125 C 50.320312 -31.820312 49.222656 -28.070312 48.265625 -24.5625 L 43.125 -7.546875 C 40.40625 0.597656 37.804688 9.101562 35.328125 17.96875 C 32.859375 26.832031 30.226562 35.335938 27.4375 43.484375 C 26.875 45.316406 26.148438 47.210938 25.265625 49.171875 C 24.390625 51.128906 23.3125 52.765625 22.03125 54.078125 C 20.757812 55.398438 19.164062 56.0625 17.25 56.0625 C 15.488281 56.0625 13.867188 54.921875 12.390625 52.640625 C 10.921875 50.367188 9.601562 47.472656 8.4375 43.953125 C 7.28125 40.441406 6.320312 36.75 5.5625 32.875 C 4.8125 29.007812 4.234375 25.398438 3.828125 22.046875 C 3.429688 18.691406 3.234375 16.132812 3.234375 14.375 L 2.390625 -2.875 C 2.390625 -15.09375 2.726562 -27.070312 3.40625 -38.8125 C 4.09375 -50.550781 4.4375 -62.445312 4.4375 -74.5 C 4.4375 -79.132812 4.316406 -84.066406 4.078125 -89.296875 C 3.835938 -94.523438 3.71875 -99.335938 3.71875 -103.734375 Z M 3.71875 -103.734375 "/></g></g></g><g fill="#122620" fill-opacity="1"><g transform="translate(149.277736, 189.376706)"><g><path d="M 0.125 -13.0625 C 0.125 -14.257812 0.257812 -15.953125 0.53125 -18.140625 C 0.8125 -20.335938 1.210938 -22.570312 1.734375 -24.84375 C 2.253906 -27.125 2.875 -29.0625 3.59375 -30.65625 C 4.3125 -32.257812 5.109375 -33.0625 5.984375 -33.0625 C 6.546875 -33.0625 6.90625 -33.019531 7.0625 -32.9375 C 7.226562 -32.851562 7.507812 -32.773438 7.90625 -32.703125 C 8.539062 -31.335938 8.597656 -29.617188 8.078125 -27.546875 C 7.566406 -25.472656 7.109375 -23.195312 6.703125 -20.71875 C 6.148438 -17.207031 5.691406 -14.09375 5.328125 -11.375 C 4.972656 -8.664062 5.191406 -5.59375 5.984375 -2.15625 C 7.179688 -2.476562 8.421875 -3.476562 9.703125 -5.15625 C 10.984375 -6.832031 12.238281 -8.804688 13.46875 -11.078125 C 14.707031 -13.359375 15.785156 -15.515625 16.703125 -17.546875 C 17.628906 -19.585938 18.332031 -21.125 18.8125 -22.15625 C 19.207031 -22.957031 19.601562 -23.875 20 -24.90625 C 20.40625 -25.945312 20.882812 -26.882812 21.4375 -27.71875 C 22 -28.5625 22.640625 -28.984375 23.359375 -28.984375 C 24.160156 -28.984375 24.5625 -28.5625 24.5625 -27.71875 C 24.5625 -26.882812 24.335938 -25.867188 23.890625 -24.671875 C 23.453125 -23.472656 22.972656 -22.273438 22.453125 -21.078125 C 21.941406 -19.878906 21.523438 -18.960938 21.203125 -18.328125 C 20.722656 -17.367188 19.960938 -15.769531 18.921875 -13.53125 C 17.890625 -11.300781 16.671875 -8.945312 15.265625 -6.46875 C 13.867188 -3.988281 12.351562 -1.890625 10.71875 -0.171875 C 9.082031 1.535156 7.46875 2.390625 5.875 2.390625 C 4.75 2.390625 3.671875 1.875 2.640625 0.84375 C 1.597656 -0.195312 0.914062 -1.535156 0.59375 -3.171875 C 0.28125 -4.804688 0.125 -6.519531 0.125 -8.3125 C 0.125 -10.113281 0.125 -11.695312 0.125 -13.0625 Z M 0.125 -13.0625 "/></g></g></g><g fill="#122620" fill-opacity="1"><g transform="translate(175.02934, 189.376706)"><g><path d="M 5.515625 -21.6875 C 7.023438 -22.476562 8.695312 -23.570312 10.53125 -24.96875 C 12.375 -26.375 13.375 -28.035156 13.53125 -29.953125 C 12.5 -29.785156 11.398438 -29.222656 10.234375 -28.265625 C 9.078125 -27.304688 8.078125 -26.226562 7.234375 -25.03125 C 6.398438 -23.832031 5.828125 -22.71875 5.515625 -21.6875 Z M 0.125 -18.8125 C 0.125 -20.800781 0.78125 -22.953125 2.09375 -25.265625 C 3.414062 -27.585938 5.050781 -29.566406 7 -31.203125 C 8.957031 -32.835938 10.894531 -33.65625 12.8125 -33.65625 C 15.445312 -33.65625 16.820312 -32.65625 16.9375 -30.65625 C 17.0625 -28.664062 16.207031 -26.515625 14.375 -24.203125 C 13.414062 -23.160156 11.976562 -21.957031 10.0625 -20.59375 C 8.144531 -19.238281 6.269531 -18.484375 4.4375 -18.328125 C 4.4375 -17.046875 4.472656 -15.90625 4.546875 -14.90625 C 4.628906 -13.914062 5.191406 -12.898438 6.234375 -11.859375 C 7.265625 -10.816406 8.582031 -10.296875 10.1875 -10.296875 C 12.257812 -10.296875 14.410156 -10.953125 16.640625 -12.265625 C 18.878906 -13.585938 20.597656 -14.691406 21.796875 -15.578125 C 22.273438 -15.972656 22.65625 -16.289062 22.9375 -16.53125 C 23.21875 -16.769531 23.554688 -17.050781 23.953125 -17.375 C 25.628906 -18.644531 26.6875 -19.578125 27.125 -20.171875 C 27.570312 -20.773438 27.953125 -21.175781 28.265625 -21.375 C 28.585938 -21.582031 29.347656 -21.6875 30.546875 -21.6875 C 30.703125 -20.800781 30.757812 -20.195312 30.71875 -19.875 C 30.675781 -19.5625 30.378906 -19.085938 29.828125 -18.453125 C 28.390625 -17.015625 26.570312 -15.375 24.375 -13.53125 C 22.175781 -11.695312 19.816406 -10.097656 17.296875 -8.734375 C 14.785156 -7.378906 12.296875 -6.703125 9.828125 -6.703125 C 8.546875 -6.703125 7.328125 -6.921875 6.171875 -7.359375 C 5.015625 -7.804688 3.914062 -8.546875 2.875 -9.578125 C 1.4375 -11.015625 0.617188 -12.492188 0.421875 -14.015625 C 0.222656 -15.535156 0.125 -17.132812 0.125 -18.8125 Z M 0.125 -18.8125 "/></g></g></g><g fill="#122620" fill-opacity="1"><g transform="translate(201.020493, 189.376706)"><g><path d="M 5.515625 14.734375 C 7.910156 14.734375 10.082031 13.875 12.03125 12.15625 C 13.988281 10.4375 15.6875 8.421875 17.125 6.109375 C 18.5625 3.796875 19.757812 1.757812 20.71875 0 C 20.238281 0.15625 19.28125 0.59375 17.84375 1.3125 C 16.40625 2.03125 14.96875 2.789062 13.53125 3.59375 C 12.09375 4.394531 11.097656 4.992188 10.546875 5.390625 C 9.503906 6.023438 8.382812 6.863281 7.1875 7.90625 C 5.988281 8.945312 4.96875 9.984375 4.125 11.015625 C 3.289062 12.054688 2.929688 12.9375 3.046875 13.65625 C 3.171875 14.375 3.992188 14.734375 5.515625 14.734375 Z M 1.671875 -7.546875 C 1.671875 -10.578125 1.789062 -14.304688 2.03125 -18.734375 C 2.269531 -23.171875 2.628906 -27.84375 3.109375 -32.75 C 3.585938 -37.664062 4.226562 -42.316406 5.03125 -46.703125 C 5.832031 -51.097656 6.789062 -54.695312 7.90625 -57.5 C 8.539062 -59.09375 9.140625 -60.1875 9.703125 -60.78125 C 10.265625 -61.382812 10.785156 -61.6875 11.265625 -61.6875 C 11.816406 -61.6875 12.253906 -61.40625 12.578125 -60.84375 C 12.898438 -60.289062 13.019531 -59.8125 12.9375 -59.40625 C 12.9375 -59.25 12.835938 -58.832031 12.640625 -58.15625 C 12.441406 -57.476562 12.300781 -56.859375 12.21875 -56.296875 C 11.582031 -53.816406 10.90625 -50.5625 10.1875 -46.53125 C 9.46875 -42.5 8.804688 -38.207031 8.203125 -33.65625 C 7.609375 -29.101562 7.128906 -24.789062 6.765625 -20.71875 C 6.410156 -16.644531 6.234375 -13.410156 6.234375 -11.015625 L 8.859375 -15.328125 C 9.265625 -16.128906 9.6875 -16.867188 10.125 -17.546875 C 10.5625 -18.222656 11.0625 -18.84375 11.625 -19.40625 C 12.894531 -21.164062 14.328125 -22.539062 15.921875 -23.53125 C 17.523438 -24.53125 19.085938 -25.03125 20.609375 -25.03125 C 23.160156 -25.03125 25.195312 -23.675781 26.71875 -20.96875 C 28.070312 -18.332031 28.628906 -15.972656 28.390625 -13.890625 C 28.148438 -11.816406 28.03125 -9.863281 28.03125 -8.03125 C 29.539062 -8.820312 30.753906 -9.457031 31.671875 -9.9375 C 32.597656 -10.414062 33.5 -10.9375 34.375 -11.5 C 35.25 -12.0625 36.40625 -12.859375 37.84375 -13.890625 C 38.5625 -14.453125 39.539062 -15.25 40.78125 -16.28125 C 42.019531 -17.320312 43.195312 -18.300781 44.3125 -19.21875 C 45.4375 -20.144531 46.117188 -20.609375 46.359375 -20.609375 C 47.554688 -20.609375 48.210938 -20.347656 48.328125 -19.828125 C 48.453125 -19.304688 48.253906 -18.707031 47.734375 -18.03125 C 47.210938 -17.351562 46.671875 -16.753906 46.109375 -16.234375 C 45.554688 -15.710938 45.195312 -15.410156 45.03125 -15.328125 C 44.15625 -14.367188 43.238281 -13.53125 42.28125 -12.8125 C 41.320312 -12.09375 40.363281 -11.296875 39.40625 -10.421875 C 38.125 -9.546875 36.503906 -8.523438 34.546875 -7.359375 C 32.597656 -6.203125 30.84375 -5.164062 29.28125 -4.25 C 27.726562 -3.332031 26.832031 -2.710938 26.59375 -2.390625 C 26.351562 -1.992188 25.972656 -1.097656 25.453125 0.296875 C 24.929688 1.691406 24.191406 3.328125 23.234375 5.203125 C 22.273438 7.085938 21.035156 8.96875 19.515625 10.84375 C 18.003906 12.71875 16.128906 14.332031 13.890625 15.6875 C 11.097656 17.445312 8.265625 18.328125 5.390625 18.328125 C 3.710938 18.328125 2.273438 17.90625 1.078125 17.0625 C -0.117188 16.226562 -0.71875 14.894531 -0.71875 13.0625 C -0.71875 11.300781 0.078125 9.5625 1.671875 7.84375 C 3.273438 6.125 5.234375 4.484375 7.546875 2.921875 C 9.859375 1.367188 12.171875 -0.00390625 14.484375 -1.203125 C 16.804688 -2.398438 18.6875 -3.359375 20.125 -4.078125 C 21.238281 -4.628906 21.9375 -4.984375 22.21875 -5.140625 C 22.5 -5.304688 22.800781 -6.066406 23.125 -7.421875 C 23.675781 -9.742188 23.910156 -11.941406 23.828125 -14.015625 C 23.753906 -16.085938 23.414062 -17.78125 22.8125 -19.09375 C 22.21875 -20.414062 21.320312 -21.078125 20.125 -21.078125 C 18.601562 -21.078125 16.6875 -19.757812 14.375 -17.125 C 12.375 -14.726562 10.773438 -12.132812 9.578125 -9.34375 C 8.378906 -6.550781 7.398438 -4.15625 6.640625 -2.15625 C 5.890625 -0.15625 5.113281 0.84375 4.3125 0.84375 C 3.269531 0.84375 2.566406 0.382812 2.203125 -0.53125 C 1.847656 -1.457031 1.671875 -2.578125 1.671875 -3.890625 C 1.671875 -5.210938 1.671875 -6.429688 1.671875 -7.546875 Z M 1.671875 -7.546875 "/></g></g></g><g fill="#122620" fill-opacity="1"><g transform="translate(243.540576, 189.376706)"><g><path d="M 0 -12.09375 C 0 -13.769531 0.394531 -15.847656 1.1875 -18.328125 C 1.988281 -20.804688 3.109375 -23.257812 4.546875 -25.6875 C 5.984375 -28.125 7.640625 -30.140625 9.515625 -31.734375 C 11.398438 -33.335938 13.378906 -34.140625 15.453125 -34.140625 C 17.367188 -34.140625 18.925781 -33.578125 20.125 -32.453125 C 21.320312 -31.335938 22.039062 -30.203125 22.28125 -29.046875 C 22.519531 -27.890625 22.117188 -27.3125 21.078125 -27.3125 C 20.285156 -27.3125 19.46875 -27.769531 18.625 -28.6875 C 17.789062 -29.601562 16.8125 -30.0625 15.6875 -30.0625 C 14.8125 -30.0625 13.753906 -29.539062 12.515625 -28.5 C 11.273438 -27.46875 9.78125 -25.4375 8.03125 -22.40625 C 7.226562 -21.125 6.488281 -19.460938 5.8125 -17.421875 C 5.132812 -15.390625 4.796875 -13.375 4.796875 -11.375 C 4.953125 -11.539062 5.007812 -11.601562 4.96875 -11.5625 C 4.925781 -11.519531 5.066406 -11.660156 5.390625 -11.984375 L 6.34375 -13.421875 C 6.988281 -14.378906 7.726562 -15.613281 8.5625 -17.125 C 9.40625 -18.644531 10.265625 -20.179688 11.140625 -21.734375 C 12.015625 -23.296875 12.8125 -24.613281 13.53125 -25.6875 C 14.25 -26.769531 14.8125 -27.3125 15.21875 -27.3125 C 16.65625 -27.3125 17.492188 -26.789062 17.734375 -25.75 C 17.972656 -24.71875 18.070312 -23.441406 18.03125 -21.921875 C 17.988281 -20.398438 18.128906 -18.882812 18.453125 -17.375 C 18.929688 -15.21875 19.664062 -13.640625 20.65625 -12.640625 C 21.65625 -11.640625 22.796875 -11.140625 24.078125 -11.140625 C 26.316406 -11.140625 28.789062 -12.5 31.5 -15.21875 C 32.613281 -16.25 33.410156 -17.101562 33.890625 -17.78125 C 34.367188 -18.46875 35.007812 -19.25 35.8125 -20.125 C 36.375 -20.925781 37.09375 -21.328125 37.96875 -21.328125 C 38.84375 -21.328125 39.21875 -20.585938 39.09375 -19.109375 C 38.976562 -17.628906 37.40625 -15.410156 34.375 -12.453125 L 30.78125 -9.578125 C 28.46875 -7.984375 26.234375 -7.1875 24.078125 -7.1875 C 22.078125 -7.1875 20.335938 -7.785156 18.859375 -8.984375 C 17.390625 -10.179688 16.253906 -11.65625 15.453125 -13.40625 C 14.648438 -15.164062 14.25 -16.882812 14.25 -18.5625 C 13.695312 -18.164062 13.0625 -17.285156 12.34375 -15.921875 C 11.625 -14.566406 10.84375 -13.109375 10 -11.546875 C 9.164062 -9.992188 8.304688 -8.640625 7.421875 -7.484375 C 6.546875 -6.328125 5.671875 -5.75 4.796875 -5.75 C 2.554688 -5.75 1.195312 -6.265625 0.71875 -7.296875 C 0.238281 -8.335938 0 -9.9375 0 -12.09375 Z M 0 -12.09375 "/></g></g></g><path fill="#fffef9" d="M 247.78125 265.058594 C 245.582031 266.742188 243.324219 268.335938 240.996094 269.835938 C 238.671875 271.335938 236.289062 272.738281 233.847656 274.046875 C 231.410156 275.351562 228.917969 276.554688 226.382812 277.660156 C 223.84375 278.765625 221.265625 279.761719 218.644531 280.65625 C 216.027344 281.550781 213.375 282.335938 210.691406 283.015625 C 208.007812 283.691406 205.300781 284.261719 202.570312 284.71875 C 199.84375 285.175781 197.097656 285.519531 194.339844 285.753906 C 191.582031 285.988281 188.820312 286.113281 186.050781 286.121094 C 183.285156 286.128906 180.523438 286.027344 177.761719 285.8125 C 175.003906 285.597656 172.257812 285.269531 169.523438 284.832031 C 166.792969 284.390625 164.082031 283.84375 161.394531 283.183594 C 158.707031 282.523438 156.050781 281.753906 153.421875 280.878906 C 150.796875 280.003906 148.210938 279.023438 145.667969 277.933594 C 143.121094 276.847656 140.625 275.660156 138.175781 274.371094 C 135.726562 273.082031 133.335938 271.695312 131 270.210938 C 128.664062 268.726562 126.390625 267.148438 124.183594 265.480469 L 137.898438 247.34375 C 139.613281 248.640625 141.378906 249.867188 143.195312 251.019531 C 145.007812 252.171875 146.867188 253.25 148.769531 254.253906 C 150.671875 255.253906 152.613281 256.179688 154.59375 257.023438 C 156.570312 257.867188 158.578125 258.628906 160.621094 259.308594 C 162.660156 259.992188 164.722656 260.585938 166.8125 261.101562 C 168.902344 261.613281 171.007812 262.039062 173.132812 262.378906 C 175.253906 262.722656 177.386719 262.976562 179.53125 263.144531 C 181.675781 263.3125 183.824219 263.390625 185.976562 263.382812 C 188.125 263.375 190.273438 263.28125 192.414062 263.101562 C 194.558594 262.917969 196.691406 262.648438 198.8125 262.292969 C 200.933594 261.9375 203.035156 261.496094 205.121094 260.96875 C 207.207031 260.441406 209.265625 259.832031 211.300781 259.136719 C 213.335938 258.441406 215.339844 257.667969 217.3125 256.808594 C 219.285156 255.953125 221.21875 255.015625 223.117188 254 C 225.011719 252.984375 226.863281 251.894531 228.671875 250.726562 C 230.480469 249.5625 232.234375 248.324219 233.941406 247.015625 Z M 247.78125 265.058594 " fill-opacity="1" fill-rule="nonzero"/><g fill="#122620" fill-opacity="1"><g transform="translate(131.393433, 263.454691)"><g><path d="M 11.1875 -4.4375 L 4.1875 2.421875 L 2.78125 1.609375 L 5.9375 -9.75 L 7.375 -8.90625 L 4.578125 0.171875 L 4.609375 0.1875 L 11.453125 -6.5625 L 12.921875 -5.703125 L 10.484375 3.578125 L 10.5 3.59375 L 16.984375 -3.359375 L 18.46875 -2.5 L 10.15625 5.875 L 8.75 5.0625 L 11.203125 -4.421875 Z M 11.1875 -4.4375 "/></g></g></g><g fill="#122620" fill-opacity="1"><g transform="translate(157.629434, 276.055091)"><g><path d="M 11.25 -3.171875 C 11.457031 -4.046875 11.488281 -4.859375 11.34375 -5.609375 C 11.207031 -6.359375 10.894531 -6.992188 10.40625 -7.515625 C 9.925781 -8.046875 9.285156 -8.40625 8.484375 -8.59375 C 7.679688 -8.78125 6.941406 -8.753906 6.265625 -8.515625 C 5.597656 -8.273438 5.03125 -7.851562 4.5625 -7.25 C 4.101562 -6.65625 3.769531 -5.921875 3.5625 -5.046875 C 3.351562 -4.171875 3.316406 -3.351562 3.453125 -2.59375 C 3.597656 -1.84375 3.910156 -1.195312 4.390625 -0.65625 C 4.878906 -0.125 5.523438 0.234375 6.328125 0.421875 C 7.128906 0.609375 7.863281 0.578125 8.53125 0.328125 C 9.207031 0.078125 9.773438 -0.347656 10.234375 -0.953125 C 10.703125 -1.554688 11.039062 -2.296875 11.25 -3.171875 Z M 12.796875 -2.8125 C 12.679688 -2.332031 12.503906 -1.835938 12.265625 -1.328125 C 12.023438 -0.816406 11.71875 -0.335938 11.34375 0.109375 C 10.96875 0.554688 10.523438 0.941406 10.015625 1.265625 C 9.515625 1.585938 8.925781 1.796875 8.25 1.890625 C 7.582031 1.984375 6.835938 1.929688 6.015625 1.734375 C 5.191406 1.535156 4.503906 1.242188 3.953125 0.859375 C 3.398438 0.472656 2.96875 0.0195312 2.65625 -0.5 C 2.34375 -1.019531 2.117188 -1.5625 1.984375 -2.125 C 1.847656 -2.6875 1.789062 -3.25 1.8125 -3.8125 C 1.832031 -4.382812 1.898438 -4.910156 2.015625 -5.390625 C 2.128906 -5.867188 2.300781 -6.359375 2.53125 -6.859375 C 2.769531 -7.367188 3.078125 -7.847656 3.453125 -8.296875 C 3.835938 -8.742188 4.285156 -9.125 4.796875 -9.4375 C 5.304688 -9.757812 5.894531 -9.972656 6.5625 -10.078125 C 7.226562 -10.179688 7.972656 -10.132812 8.796875 -9.9375 C 9.617188 -9.738281 10.304688 -9.441406 10.859375 -9.046875 C 11.421875 -8.648438 11.851562 -8.191406 12.15625 -7.671875 C 12.46875 -7.160156 12.6875 -6.625 12.8125 -6.0625 C 12.945312 -5.5 13.003906 -4.9375 12.984375 -4.375 C 12.972656 -3.8125 12.910156 -3.289062 12.796875 -2.8125 Z M 12.796875 -2.8125 "/></g></g></g><g fill="#122620" fill-opacity="1"><g transform="translate(183.808416, 280.274598)"><g><path d="M 2.53125 -4.984375 L 2.703125 -0.09375 L 1.15625 -0.046875 L 0.75 -11.453125 L 6.015625 -11.625 C 6.484375 -11.644531 6.941406 -11.613281 7.390625 -11.53125 C 7.847656 -11.457031 8.257812 -11.304688 8.625 -11.078125 C 8.988281 -10.859375 9.28125 -10.554688 9.5 -10.171875 C 9.726562 -9.785156 9.851562 -9.296875 9.875 -8.703125 C 9.894531 -8.140625 9.832031 -7.679688 9.6875 -7.328125 C 9.539062 -6.972656 9.347656 -6.6875 9.109375 -6.46875 C 8.867188 -6.25 8.628906 -6.0625 8.390625 -5.90625 C 8.523438 -5.832031 8.671875 -5.753906 8.828125 -5.671875 C 8.992188 -5.585938 9.15625 -5.476562 9.3125 -5.34375 C 9.46875 -5.21875 9.597656 -5.03125 9.703125 -4.78125 C 9.804688 -4.53125 9.863281 -4.207031 9.875 -3.8125 L 9.953125 -1.734375 C 9.960938 -1.421875 10.015625 -1.191406 10.109375 -1.046875 C 10.203125 -0.898438 10.363281 -0.765625 10.59375 -0.640625 L 10.609375 -0.375 L 8.734375 -0.3125 C 8.671875 -0.476562 8.617188 -0.695312 8.578125 -0.96875 C 8.535156 -1.25 8.5 -1.535156 8.46875 -1.828125 C 8.4375 -2.128906 8.410156 -2.398438 8.390625 -2.640625 C 8.378906 -2.878906 8.375 -3.050781 8.375 -3.15625 C 8.363281 -3.46875 8.304688 -3.773438 8.203125 -4.078125 C 8.109375 -4.378906 7.910156 -4.628906 7.609375 -4.828125 C 7.316406 -5.035156 6.863281 -5.128906 6.25 -5.109375 Z M 2.34375 -10.171875 L 2.484375 -6.296875 L 6.046875 -6.421875 C 6.421875 -6.429688 6.785156 -6.488281 7.140625 -6.59375 C 7.492188 -6.707031 7.78125 -6.910156 8 -7.203125 C 8.226562 -7.492188 8.332031 -7.921875 8.3125 -8.484375 C 8.289062 -8.921875 8.207031 -9.265625 8.0625 -9.515625 C 7.925781 -9.765625 7.742188 -9.945312 7.515625 -10.0625 C 7.296875 -10.175781 7.066406 -10.242188 6.828125 -10.265625 C 6.585938 -10.296875 6.375 -10.3125 6.1875 -10.3125 Z M 2.34375 -10.171875 "/></g></g></g><g fill="#122620" fill-opacity="1"><g transform="translate(208.85113, 277.546599)"><g><path d="M -0.703125 -11.703125 L 0.890625 -6.40625 L 4.578125 -13.3125 L 6.609375 -13.921875 L 3.40625 -8.125 L 10.015625 -3.03125 L 8.125 -2.453125 L 2.640625 -6.765625 L 1.4375 -4.609375 L 2.59375 -0.78125 L 1.109375 -0.328125 L -2.1875 -11.25 Z M -0.703125 -11.703125 "/></g></g></g><g fill="#122620" fill-opacity="1"><g transform="translate(231.764631, 268.748175)"><g><path d="M 3.921875 -11.84375 L 2.6875 -11.09375 C 2.34375 -11.582031 1.960938 -11.890625 1.546875 -12.015625 C 1.128906 -12.148438 0.703125 -12.164062 0.265625 -12.0625 C -0.160156 -11.96875 -0.554688 -11.8125 -0.921875 -11.59375 C -1.117188 -11.46875 -1.335938 -11.304688 -1.578125 -11.109375 C -1.816406 -10.921875 -2.015625 -10.695312 -2.171875 -10.4375 C -2.335938 -10.175781 -2.425781 -9.882812 -2.4375 -9.5625 C -2.457031 -9.238281 -2.351562 -8.894531 -2.125 -8.53125 C -1.957031 -8.257812 -1.757812 -8.078125 -1.53125 -7.984375 C -1.300781 -7.890625 -0.972656 -7.882812 -0.546875 -7.96875 C -0.128906 -8.0625 0.460938 -8.234375 1.234375 -8.484375 C 2.078125 -8.765625 2.789062 -8.96875 3.375 -9.09375 C 3.96875 -9.21875 4.46875 -9.253906 4.875 -9.203125 C 5.28125 -9.148438 5.628906 -9.007812 5.921875 -8.78125 C 6.222656 -8.550781 6.5 -8.222656 6.75 -7.796875 C 7.101562 -7.234375 7.273438 -6.691406 7.265625 -6.171875 C 7.253906 -5.648438 7.125 -5.160156 6.875 -4.703125 C 6.632812 -4.253906 6.320312 -3.847656 5.9375 -3.484375 C 5.5625 -3.117188 5.160156 -2.8125 4.734375 -2.5625 C 3.921875 -2.050781 3.191406 -1.75 2.546875 -1.65625 C 1.898438 -1.5625 1.328125 -1.597656 0.828125 -1.765625 C 0.335938 -1.941406 -0.078125 -2.195312 -0.421875 -2.53125 C -0.773438 -2.863281 -1.054688 -3.203125 -1.265625 -3.546875 L -0.03125 -4.296875 C 0.226562 -3.867188 0.53125 -3.554688 0.875 -3.359375 C 1.21875 -3.160156 1.570312 -3.050781 1.9375 -3.03125 C 2.300781 -3.007812 2.664062 -3.0625 3.03125 -3.1875 C 3.394531 -3.3125 3.726562 -3.460938 4.03125 -3.640625 C 4.269531 -3.796875 4.519531 -3.976562 4.78125 -4.1875 C 5.039062 -4.40625 5.265625 -4.65625 5.453125 -4.9375 C 5.648438 -5.226562 5.773438 -5.535156 5.828125 -5.859375 C 5.878906 -6.179688 5.800781 -6.515625 5.59375 -6.859375 C 5.4375 -7.117188 5.269531 -7.316406 5.09375 -7.453125 C 4.925781 -7.585938 4.6875 -7.660156 4.375 -7.671875 C 4.070312 -7.691406 3.648438 -7.632812 3.109375 -7.5 C 2.578125 -7.363281 1.875 -7.140625 1 -6.828125 C 0.34375 -6.609375 -0.242188 -6.457031 -0.765625 -6.375 C -1.285156 -6.300781 -1.757812 -6.351562 -2.1875 -6.53125 C -2.613281 -6.707031 -2.984375 -7.054688 -3.296875 -7.578125 C -3.609375 -8.085938 -3.785156 -8.640625 -3.828125 -9.234375 C -3.867188 -9.835938 -3.734375 -10.429688 -3.421875 -11.015625 C -3.117188 -11.609375 -2.570312 -12.148438 -1.78125 -12.640625 C -1.101562 -13.046875 -0.492188 -13.316406 0.046875 -13.453125 C 0.585938 -13.585938 1.066406 -13.617188 1.484375 -13.546875 C 1.898438 -13.472656 2.257812 -13.34375 2.5625 -13.15625 C 2.875 -12.96875 3.140625 -12.753906 3.359375 -12.515625 C 3.585938 -12.273438 3.773438 -12.050781 3.921875 -11.84375 Z M 3.921875 -11.84375 "/></g></g></g></svg>