<svg y="0px" x="0px" viewBox="0 0 32.24 32.879999999999995" data-name="Layer 1" xmlns="http://www.w3.org/2000/svg" style="max-height: 500px" width="32.24" height="32.879999999999995"><path d="M25,2H7A3,3,0,0,0,4,5V26a3,3,0,0,0,3,3h8v1a1,1,0,0,0,.53.88,1,1,0,0,0,1-.05L19,29.2l2.45,1.63A1,1,0,0,0,23,30V29h2a3,3,0,0,0,3-3V5A3,3,0,0,0,25,2ZM19,24a3,3,0,1,1,3-3A3,3,0,0,1,19,24Zm2,4.13-1.45-1a1,1,0,0,0-1.1,0l-1.45,1V25.58a5,5,0,0,0,4,0ZM26,26a1,1,0,0,1-1,1H23V24a4.94,4.94,0,0,0,1-3,5,5,0,0,0-10,0,4.94,4.94,0,0,0,1,3v3H7a1,1,0,0,1-1-1V5A1,1,0,0,1,7,4H25a1,1,0,0,1,1,1Z"/><path d="M22,7H10a1,1,0,0,0,0,2H22a1,1,0,0,0,0-2Z"/><path d="M20,11H10a1,1,0,0,0,0,2H20a1,1,0,0,0,0-2Z"/><text font-family="'Helvetica Neue', Helvetica, Arial-Unicode, Arial, Sans-serif" font-weight="bold" font-size="5px" fill="#000000" y="47" x="0">Created by Daniil Churakov</text><text font-family="'Helvetica Neue', Helvetica, Arial-Unicode, Arial, Sans-serif" font-weight="bold" font-size="5px" fill="#000000" y="52" x="0">from the Noun Project</text></svg>