<svg viewBox="-5 -9.949375 138.9189189189189 123.49799999999999" version="1.1" xmlns="http://www.w3.org/2000/svg" style="max-height: 500px" width="138.9189189189189" height="123.49799999999999">
 <g>
  <path d="m67.68 16.988c-3.7305-1.7344-6.3945 3.7461-2.7422 5.6133 32.328 16.121 21.137 64.496-14.977 64.898-18.844 0-34.172-15.328-34.172-34.172-0.35156-19.547 17.539-36.02 36.996-34.059 3.0625 0.14844 4.8594-3.5469 2.3125-5.5938l-8.6875-6.7422c-3.2344-2.4805-7.0508 2.4062-3.832 4.9375l1.8516 1.4375c-49.465 8.2812-44.648 78.891 5.5312 80.441 42.715-0.49219 55.957-57.684 17.719-76.762z"/>
  <path d="m46.82 74.828c-2.6797-0.38281-5.2305-1.25-7.6055-2.6211-1.4922-0.86328-3.4062-0.35156-4.2695 1.1445-2.8516 5.9062 11.121 7.9922 15.016 7.9648 37.098-1.5664 37.09-54.422 0-55.984-15.465-0.011719-28.055 12.645-27.984 28.086-0.11719 3.8867 2.457 18.551 8.332 15.449 1.4766-0.89844 1.9453-2.8203 1.0469-4.293-1.5117-2.4844-2.4883-5.25-2.9023-8.1211h2.707c1.7266 0 3.125-1.3984 3.125-3.125s-1.3984-3.125-3.125-3.125h-2.6914c1.375-9.4844 8.8711-16.988 18.352-18.367v2.7031c0.074219 4.1172 6.1797 4.0977 6.25 0v-2.707c9.4805 1.3711 16.98 8.8789 18.355 18.371h-2.6914c-1.7266 0-3.125 1.3984-3.125 3.125s1.3984 3.125 3.125 3.125h2.6914c-1.375 9.4922-8.875 17-18.352 18.367v-2.707c-0.074219-4.1172-6.1797-4.0977-6.25 0v2.7188z"/>
  <path d="m49.961 41.453c-1.7266 0-3.125 1.3984-3.125 3.125v8.75c0 0.82812 0.32812 1.6211 0.91406 2.207 2.0234 1.7656 4.6406 5.5039 6.5586 5.2656 2.6719 0.09375 4.2031-3.4766 2.207-5.332l-3.4336-3.4336v-7.457c0-1.7266-1.3984-3.125-3.125-3.125z"/>
 </g>
<text fill="#000000" font-family="Arbeit Regular, Helvetica, Arial-Unicode, Arial, Sans-serif" font-weight="bold" font-size="5.0" y="117.5" x="0.0">Created by Contributor Icons</text><text fill="#000000" font-family="Arbeit Regular, Helvetica, Arial-Unicode, Arial, Sans-serif" font-weight="bold" font-size="5.0" y="122.5" x="0.0">from Noun Project</text></svg>