<svg y="0px" x="0px" viewBox="-4 -7.9595 111.13513513513513 98.7984" data-name="Layer 1" xmlns="http://www.w3.org/2000/svg" style="max-height: 500px" width="111.13513513513513" height="98.7984"><title>cloudservice-cloud-tech-stack</title><path d="M72.48,34.19A33,33,0,0,0,45.81,7.52a6,6,0,0,0-11.62,0A33,33,0,0,0,7.52,34.19a6,6,0,0,0,0,11.62A33,33,0,0,0,34.19,72.48a6,6,0,0,0,11.62,0A33,33,0,0,0,72.48,45.81a6,6,0,0,0,0-11.62ZM40,7a2,2,0,0,1,2,1.93,1.23,1.23,0,0,0,0,.2h0a2,2,0,0,1-4,0,1.36,1.36,0,0,0,0-.2A2,2,0,0,1,40,7ZM9.13,42h0l-.2,0a2,2,0,0,1,0-4l.2,0a2,2,0,0,1,0,4ZM40,73a2,2,0,0,1-2-1.93,1.23,1.23,0,0,0,0-.2,2,2,0,0,1,4,0h0a1.36,1.36,0,0,0,0,.2A2,2,0,0,1,40,73Zm5.42-4.54a6,6,0,0,0-10.84,0,28.91,28.91,0,0,1-23-23,6,6,0,0,0,0-10.84,28.9,28.9,0,0,1,23-23,6,6,0,0,0,10.84,0,28.91,28.91,0,0,1,23,23,6,6,0,0,0,0,10.84A28.91,28.91,0,0,1,45.42,68.46ZM71.07,42l-.2,0h0a2,2,0,0,1,0-4l.2,0a2,2,0,0,1,0,4Z"/><path d="M52.25,34.05A12.16,12.16,0,0,0,28.8,36.2H27.08A8,8,0,0,0,19,44a7.89,7.89,0,0,0,7.89,8h25A9.05,9.05,0,0,0,61,43.46a9,9,0,0,0-8.74-9.41Zm-.4,14h-25a3.86,3.86,0,0,1-2.77-1.16A3.91,3.91,0,0,1,23,44a4,4,0,0,1,4.08-3.82h2.06a3.62,3.62,0,0,0,3.57-3.12A8.16,8.16,0,0,1,48.55,35.6v0A8.25,8.25,0,0,1,49,38.2a8.06,8.06,0,0,1,0,.85,2,2,0,0,0,1.78,2.2h.21a2,2,0,0,0,2-1.79c0-.42.06-.85.06-1.27v-.06a4.86,4.86,0,0,1,2.65,1.44A5,5,0,0,1,57,43.27,5.11,5.11,0,0,1,51.85,48Z"/><text fill="#000000" font-family="Arbeit Regular, Helvetica, Arial-Unicode, Arial, Sans-serif" font-weight="bold" font-size="4.0" y="94.0" x="0.0">Created by Tim R</text><text fill="#000000" font-family="Arbeit Regular, Helvetica, Arial-Unicode, Arial, Sans-serif" font-weight="bold" font-size="4.0" y="98.0" x="0.0">from Noun Project</text></svg>