<svg viewBox="-5 1.177999999999999 110.54054054054053 100.17" version="1.1" xmlns="http://www.w3.org/2000/svg" style="max-height: 500px" width="110.54054054054053" height="100.17">
 <path d="m74.043 36.215c-0.99609-0.46484-1.4258-1.6523-0.96094-2.6484 0.46484-0.99609 1.6523-1.4258 2.6484-0.96094 4.0195 1.875 7.832 4.1914 11.359 6.9102 3.4922 2.6875 6.7109 5.7695 9.5781 9.2031 0.63281 0.75781 0.60938 1.8438-0.007813 2.5742-2.8672 3.4297-6.082 6.5078-9.5703 9.1953-3.5273 2.7148-7.3398 5.0312-11.359 6.9102-0.99609 0.46484-2.1836 0.035156-2.6484-0.96094-0.46484-0.99609-0.035156-2.1836 0.96094-2.6484 3.7461-1.75 7.3086-3.9141 10.609-6.4531 2.8164-2.168 5.4492-4.6211 7.8516-7.3281-2.4023-2.7109-5.0352-5.1602-7.8516-7.3281-3.3008-2.543-6.8633-4.707-10.609-6.4531zm-24.043 6.8242c1.9219 0 3.6602 0.78125 4.9219 2.0391 1.2578 1.2578 2.0391 3 2.0391 4.9219s-0.78125 3.6602-2.0391 4.9219c-1.2578 1.2578-3 2.0391-4.9219 2.0391s-3.6641-0.78125-4.9219-2.0391-2.0391-3-2.0391-4.9219 0.78125-3.6641 2.0391-4.9219 3-2.0391 4.9219-2.0391zm-46.469 20.973c-0.82422-0.73047-0.89453-1.9961-0.16406-2.8203 0.73047-0.82422 1.9961-0.89453 2.8203-0.16406 12.484 11.121 28.148 16.68 43.812 16.68s31.328-5.5625 43.812-16.68c0.82422-0.73047 2.0859-0.66016 2.8203 0.16406 0.73047 0.82422 0.66016 2.0859-0.16406 2.8203-13.242 11.797-29.855 17.695-46.465 17.695s-33.223-5.8984-46.469-17.695zm2.6562-25.043c-0.82422 0.73047-2.0859 0.66016-2.8203-0.16406-0.73047-0.82422-0.66016-2.0859 0.16406-2.8203 13.242-11.797 29.859-17.695 46.469-17.695s33.223 5.8984 46.465 17.695c0.82422 0.73047 0.89453 1.9961 0.16406 2.8203-0.73047 0.82422-1.9961 0.89453-2.8203 0.16406-12.484-11.121-28.148-16.68-43.812-16.68-15.664 0-31.328 5.5625-43.812 16.68zm43.812-4.0664c4.1641 0 7.9336 1.6914 10.664 4.4219 2.7383 2.7383 4.4297 6.5117 4.4297 10.672 0 4.1641-1.6914 7.9336-4.4219 10.664-2.7383 2.7383-6.5117 4.4297-10.672 4.4297s-7.9336-1.6914-10.664-4.4219c-2.7383-2.7383-4.4297-6.5117-4.4297-10.672s1.6914-7.9336 4.4219-10.664c2.7383-2.7383 6.5117-4.4297 10.672-4.4297zm7.8516 7.2461c-2.0078-2.0039-4.7812-3.2461-7.8516-3.2461-3.0664 0-5.8438 1.2422-7.8516 3.2461-2.0039 2.0078-3.2461 4.7852-3.2461 7.8516s1.2422 5.8438 3.2461 7.8516c2.0078 2.0039 4.7852 3.2461 7.8516 3.2461s5.8438-1.2422 7.8516-3.2461c2.0039-2.0078 3.2461-4.7812 3.2461-7.8516 0-3.0664-1.2422-5.8438-3.2461-7.8516zm-7.8516-14.16c6.0781 0 11.582 2.4648 15.562 6.4453 3.9844 3.9844 6.4453 9.4883 6.4453 15.562 0 6.0781-2.4648 11.582-6.4453 15.562-3.9844 3.9844-9.4844 6.4453-15.562 6.4453s-11.582-2.4648-15.562-6.4453c-3.9844-3.9844-6.4453-9.4844-6.4453-15.562s2.4648-11.582 6.4453-15.562c3.9844-3.9844 9.4883-6.4453 15.562-6.4453zm12.734 9.2734c-3.2578-3.2578-7.7617-5.2734-12.734-5.2734s-9.4766 2.0156-12.734 5.2734c-3.2578 3.2578-5.2734 7.7617-5.2734 12.734s2.0156 9.4766 5.2734 12.734c3.2578 3.2578 7.7617 5.2734 12.734 5.2734s9.4766-2.0156 12.734-5.2734c3.2578-3.2578 5.2734-7.7617 5.2734-12.734s-2.0156-9.4766-5.2734-12.734zm-36.781 26.523c0.99609 0.46484 1.4258 1.6523 0.96094 2.6484-0.46484 0.99609-1.6523 1.4258-2.6484 0.96094-4.0195-1.875-7.832-4.1914-11.359-6.9062-3.4922-2.6875-6.7148-5.7695-9.582-9.207-0.63281-0.75781-0.60938-1.8438 0.007812-2.5742 2.8672-3.4336 6.082-6.5117 9.5742-9.1992 3.5273-2.7148 7.3398-5.0312 11.359-6.9062 0.99609-0.46484 2.1836-0.035156 2.6484 0.96094 0.46484 0.99609 0.035157 2.1836-0.96094 2.6484-3.7461 1.7461-7.3047 3.9141-10.609 6.4531-2.8164 2.168-5.4531 4.6211-7.8555 7.332 2.4023 2.7109 5.0391 5.1641 7.8555 7.332 3.3008 2.5391 6.8594 4.707 10.609 6.4531z"/>
<text fill="#000000" font-family="Arbeit Regular, Helvetica, Arial-Unicode, Arial, Sans-serif" font-weight="bold" font-size="5.0" y="117.5" x="0.0">Created by syahruni</text><text fill="#000000" font-family="Arbeit Regular, Helvetica, Arial-Unicode, Arial, Sans-serif" font-weight="bold" font-size="5.0" y="122.5" x="0.0">from Noun Project</text></svg>