<svg xml:space="preserve" style="max-height: 500px" viewBox="0 0.046875 96.5 101.75" y="0px" x="0px" version="1.1" xmlns:xlink="http://www.w3.org/1999/xlink" xmlns="http://www.w3.org/2000/svg" width="96.5" height="101.75"><g><path d="M65.0347519,25.9814873H32.828701c-5.9453125,0-10.7822266,4.8369141-10.7822266,10.7822266v28.3583946   c0,5.9453125,4.8369141,10.7822266,10.7822266,10.7822266h23.1171875c3.1904297,0,6.2294922-1.2001953,8.5576134-3.3789062   l7.34375-6.8691406c2.5224609-2.3593712,3.96875-5.6933556,3.96875-9.1484337V36.7637138   C75.8160019,30.8184013,70.9790878,25.9814873,65.0347519,25.9814873z M32.828701,29.9814873h32.2060509   c3.7392578,0,6.78125,3.0429688,6.78125,6.7822266v2.1826172H26.0464745v-2.1826172   C26.0464745,33.024456,29.0894432,29.9814873,32.828701,29.9814873z M26.0464745,65.1221085V42.946331h45.7695274v12.8388672   h-6.2900391c-5.8369102,0-10.5849571,4.7480469-10.5849571,10.5849571v5.5341797H32.828701   C29.0894432,71.904335,26.0464745,68.8613663,26.0464745,65.1221085z M61.7710838,69.6045303   c-0.8286133,0.7754517-1.7915039,1.3634033-2.8300781,1.7529907v-4.9873657c0-3.6308556,2.9541016-6.5849571,6.5849571-6.5849571   h5.626709c-0.4613037,1.1066284-1.1489258,2.1179199-2.0378418,2.9492188L61.7710838,69.6045303z"/><path d="M37.9839745,44.9228935h-7.0839844c-0.5527344,0-1,0.4472656-1,1v7.0849609c0,0.5527344,0.4472656,1,1,1h7.0839844   c0.5527344,0,1-0.4472656,1-1v-7.0849609C38.9839745,45.3701591,38.5367088,44.9228935,37.9839745,44.9228935z    M36.9839745,52.0078545h-5.0839844v-5.0849609h5.0839844V52.0078545z"/><path d="M52.5513573,44.9228935h-7.0849609c-0.5527344,0-1,0.4472656-1,1v7.0849609c0,0.5527344,0.4472656,1,1,1h7.0849609   c0.5527344,0,1-0.4472656,1-1v-7.0849609C53.5513573,45.3701591,53.1040916,44.9228935,52.5513573,44.9228935z    M51.5513573,52.0078545h-5.0849609v-5.0849609h5.0849609V52.0078545z"/><path d="M60.0337791,54.0078545h7.0839806c0.5527344,0,1-0.4472656,1-1v-7.0849609c0-0.5527344-0.4472656-1-1-1h-7.0839806   c-0.5527344,0-1,0.4472656-1,1v7.0849609C59.0337791,53.5605888,59.4810448,54.0078545,60.0337791,54.0078545z    M61.0337791,46.9228935h5.0839806v5.0849609h-5.0839806V46.9228935z"/></g><text font-family="'Helvetica Neue', Helvetica, Arial-Unicode, Arial, Sans-serif" font-weight="bold" font-size="5px" fill="#000000" y="115" x="0">Created by Nook Fulloption</text><text font-family="'Helvetica Neue', Helvetica, Arial-Unicode, Arial, Sans-serif" font-weight="bold" font-size="5px" fill="#000000" y="120" x="0">from the Noun Project</text></svg>